<svg width="488" height="371" viewBox="0 0 488 371" fill="none" xmlns="http://www.w3.org/2000/svg">
<g clip-path="url(#clip0_127_893)" filter="url(#filter0_d_127_893)">
<rect width="456" height="339" transform="translate(11 11)" fill="white"/>
<g filter="url(#filter1_d_127_893)">
<rect x="123" y="21" width="232" height="55.8857" rx="13.2571" fill="white"/>
<path fill-rule="evenodd" clip-rule="evenodd" d="M177.227 42.9414C177.227 41.3997 178.457 40.2059 179.984 39.4422C181.557 38.656 183.676 38.1914 185.977 38.1914C188.277 38.1914 190.397 38.656 191.969 39.4422C193.496 40.2059 194.727 41.3997 194.727 42.9414V54.9414C194.727 56.4831 193.496 57.6769 191.969 58.4407C190.397 59.2268 188.277 59.6914 185.977 59.6914C183.676 59.6914 181.557 59.2268 179.984 58.4407C178.457 57.6769 177.227 56.4831 177.227 54.9414V42.9414ZM178.727 42.9414C178.727 42.274 179.287 41.4678 180.655 40.7838C181.978 40.1222 183.859 39.6914 185.977 39.6914C188.095 39.6914 189.975 40.1222 191.298 40.7838C192.666 41.4678 193.227 42.274 193.227 42.9414C193.227 43.6089 192.666 44.415 191.298 45.099C189.975 45.7606 188.095 46.1914 185.977 46.1914C183.859 46.1914 181.978 45.7606 180.655 45.099C179.287 44.415 178.727 43.6089 178.727 42.9414ZM178.727 54.9414C178.727 55.6089 179.287 56.415 180.655 57.099C181.978 57.7606 183.859 58.1914 185.977 58.1914C188.095 58.1914 189.975 57.7606 191.298 57.099C192.666 56.415 193.227 55.6089 193.227 54.9414V51.6486C192.85 51.9491 192.422 52.2139 191.969 52.4407C190.397 53.2268 188.277 53.6914 185.977 53.6914C183.676 53.6914 181.557 53.2268 179.984 52.4407C179.531 52.2139 179.103 51.9491 178.727 51.6486V54.9414ZM193.227 45.6486V48.9414C193.227 49.6089 192.666 50.415 191.298 51.099C189.975 51.7606 188.095 52.1914 185.977 52.1914C183.859 52.1914 181.978 51.7606 180.655 51.099C179.287 50.415 178.727 49.6089 178.727 48.9414V45.6486C179.103 45.9491 179.531 46.2139 179.984 46.4407C181.557 47.2268 183.676 47.6914 185.977 47.6914C188.277 47.6914 190.397 47.2268 191.969 46.4407C192.422 46.2139 192.85 45.9491 193.227 45.6486Z" fill="#6C6C6C"/>
<path d="M214.957 54.9414H210.99V42.086H215.133C216.38 42.086 217.447 42.3434 218.334 42.8581C219.221 43.3686 219.901 44.103 220.374 45.0613C220.847 46.0154 221.083 47.1579 221.083 48.4886C221.083 49.8277 220.845 50.9806 220.368 51.9473C219.891 52.9097 219.196 53.6504 218.284 54.1693C217.371 54.684 216.262 54.9414 214.957 54.9414ZM212.546 53.5605H214.856C215.919 53.5605 216.8 53.3554 217.499 52.9453C218.198 52.5352 218.719 51.9514 219.062 51.194C219.405 50.4366 219.577 49.5348 219.577 48.4886C219.577 47.4508 219.407 46.5574 219.068 45.8083C218.729 45.055 218.223 44.4776 217.549 44.0758C216.875 43.6699 216.036 43.4669 215.032 43.4669H212.546V53.5605ZM226.331 55.1674C225.72 55.1674 225.165 55.0523 224.667 54.8221C224.169 54.5878 223.774 54.2509 223.481 53.8115C223.188 53.368 223.042 52.8323 223.042 52.2046C223.042 51.6522 223.15 51.2045 223.368 50.8613C223.586 50.514 223.876 50.242 224.241 50.0453C224.605 49.8486 225.006 49.7022 225.446 49.6059C225.889 49.5055 226.335 49.426 226.783 49.3674C227.369 49.2921 227.844 49.2356 228.208 49.1979C228.576 49.1561 228.844 49.087 229.011 48.9908C229.183 48.8945 229.268 48.7271 229.268 48.4886V48.4384C229.268 47.819 229.099 47.3378 228.76 46.9947C228.425 46.6515 227.917 46.4799 227.235 46.4799C226.527 46.4799 225.973 46.6348 225.571 46.9444C225.17 47.2541 224.887 47.5847 224.724 47.9362L223.318 47.434C223.569 46.8482 223.904 46.3921 224.322 46.0656C224.745 45.7351 225.205 45.5049 225.703 45.3752C226.205 45.2413 226.699 45.1743 227.184 45.1743C227.494 45.1743 227.85 45.212 228.252 45.2873C228.657 45.3584 229.049 45.507 229.425 45.733C229.806 45.9589 230.122 46.3 230.373 46.7561C230.624 47.2123 230.75 47.8232 230.75 48.589V54.9414H229.268V53.6358H229.193C229.093 53.845 228.925 54.0689 228.691 54.3074C228.457 54.546 228.145 54.7489 227.756 54.9163C227.367 55.0837 226.892 55.1674 226.331 55.1674ZM226.557 53.8366C227.143 53.8366 227.636 53.7216 228.038 53.4914C228.444 53.2612 228.75 52.9641 228.955 52.6001C229.164 52.236 229.268 51.8531 229.268 51.4514V50.0955C229.206 50.1708 229.068 50.2399 228.854 50.3027C228.645 50.3612 228.402 50.4136 228.126 50.4596C227.854 50.5014 227.588 50.5391 227.329 50.5726C227.074 50.6019 226.866 50.627 226.707 50.6479C226.322 50.6981 225.963 50.7797 225.628 50.8927C225.297 51.0015 225.029 51.1668 224.824 51.3886C224.623 51.6062 224.523 51.9033 224.523 52.2799C224.523 52.7947 224.713 53.1838 225.094 53.4475C225.479 53.7069 225.967 53.8366 226.557 53.8366ZM237.647 45.2998V46.5553H232.65V45.2998H237.647ZM234.107 42.9899H235.588V52.1795C235.588 52.598 235.649 52.9118 235.77 53.1211C235.895 53.3261 236.054 53.4642 236.247 53.5353C236.444 53.6023 236.651 53.6358 236.868 53.6358C237.032 53.6358 237.166 53.6274 237.27 53.6107C237.375 53.5897 237.458 53.573 237.521 53.5605L237.823 54.8912C237.722 54.9289 237.582 54.9665 237.402 55.0042C237.222 55.046 236.994 55.0669 236.718 55.0669C236.299 55.0669 235.889 54.977 235.487 54.797C235.09 54.6171 234.759 54.343 234.496 53.9747C234.236 53.6065 234.107 53.142 234.107 52.5812V42.9899ZM242.712 55.1674C242.101 55.1674 241.547 55.0523 241.049 54.8221C240.551 54.5878 240.155 54.2509 239.863 53.8115C239.57 53.368 239.423 52.8323 239.423 52.2046C239.423 51.6522 239.532 51.2045 239.75 50.8613C239.967 50.514 240.258 50.242 240.622 50.0453C240.986 49.8486 241.388 49.7022 241.827 49.6059C242.271 49.5055 242.717 49.426 243.164 49.3674C243.75 49.2921 244.225 49.2356 244.589 49.1979C244.957 49.1561 245.225 49.087 245.393 48.9908C245.564 48.8945 245.65 48.7271 245.65 48.4886V48.4384C245.65 47.819 245.481 47.3378 245.142 46.9947C244.807 46.6515 244.298 46.4799 243.616 46.4799C242.909 46.4799 242.355 46.6348 241.953 46.9444C241.551 47.2541 241.269 47.5847 241.105 47.9362L239.699 47.434C239.95 46.8482 240.285 46.3921 240.704 46.0656C241.126 45.7351 241.587 45.5049 242.085 45.3752C242.587 45.2413 243.081 45.1743 243.566 45.1743C243.876 45.1743 244.231 45.212 244.633 45.2873C245.039 45.3584 245.43 45.507 245.807 45.733C246.188 45.9589 246.504 46.3 246.755 46.7561C247.006 47.2123 247.131 47.8232 247.131 48.589V54.9414H245.65V53.6358H245.575C245.474 53.845 245.307 54.0689 245.073 54.3074C244.838 54.546 244.526 54.7489 244.137 54.9163C243.748 55.0837 243.273 55.1674 242.712 55.1674ZM242.938 53.8366C243.524 53.8366 244.018 53.7216 244.42 53.4914C244.826 53.2612 245.131 52.9641 245.336 52.6001C245.545 52.236 245.65 51.8531 245.65 51.4514V50.0955C245.587 50.1708 245.449 50.2399 245.236 50.3027C245.026 50.3612 244.784 50.4136 244.508 50.4596C244.236 50.5014 243.97 50.5391 243.71 50.5726C243.455 50.6019 243.248 50.627 243.089 50.6479C242.704 50.6981 242.344 50.7797 242.009 50.8927C241.679 51.0015 241.411 51.1668 241.206 51.3886C241.005 51.6062 240.905 51.9033 240.905 52.2799C240.905 52.7947 241.095 53.1838 241.476 53.4475C241.861 53.7069 242.348 53.8366 242.938 53.8366ZM256.564 42.086V54.9414H255.008V42.086H256.564ZM260.966 49.1414V54.9414H259.485V45.2998H260.916V46.8063H261.041C261.267 46.3167 261.61 45.9234 262.071 45.6263C262.531 45.325 263.125 45.1743 263.853 45.1743C264.506 45.1743 265.077 45.3082 265.567 45.576C266.057 45.8397 266.438 46.2414 266.71 46.7812C266.982 47.3169 267.118 47.9948 267.118 48.815V54.9414H265.636V48.9154C265.636 48.158 265.439 47.568 265.046 47.1453C264.653 46.7185 264.113 46.505 263.427 46.505C262.954 46.505 262.531 46.6076 262.159 46.8126C261.79 47.0177 261.5 47.3169 261.286 47.7102C261.073 48.1036 260.966 48.5807 260.966 49.1414ZM274.118 45.2998V46.5553H268.921V45.2998H274.118ZM270.477 54.9414V43.9691C270.477 43.4167 270.607 42.9564 270.867 42.5882C271.126 42.2199 271.463 41.9437 271.877 41.7596C272.291 41.5755 272.729 41.4834 273.189 41.4834C273.553 41.4834 273.85 41.5127 274.08 41.5713C274.311 41.6299 274.482 41.6843 274.595 41.7345L274.168 43.015C274.093 42.9899 273.988 42.9585 273.854 42.9208C273.725 42.8832 273.553 42.8643 273.34 42.8643C272.85 42.8643 272.496 42.9878 272.279 43.2347C272.065 43.4816 271.959 43.8436 271.959 44.3206V54.9414H270.477ZM277.676 42.086V54.9414H276.194V42.086H277.676ZM284.306 55.1423C283.435 55.1423 282.672 54.9351 282.015 54.5208C281.362 54.1066 280.851 53.527 280.483 52.7821C280.119 52.0372 279.937 51.1668 279.937 50.1708C279.937 49.1665 280.119 48.2898 280.483 47.5408C280.851 46.7917 281.362 46.21 282.015 45.7957C282.672 45.3814 283.435 45.1743 284.306 45.1743C285.176 45.1743 285.938 45.3814 286.591 45.7957C287.248 46.21 287.758 46.7917 288.122 47.5408C288.49 48.2898 288.675 49.1665 288.675 50.1708C288.675 51.1668 288.49 52.0372 288.122 52.7821C287.758 53.527 287.248 54.1066 286.591 54.5208C285.938 54.9351 285.176 55.1423 284.306 55.1423ZM284.306 53.8115C284.967 53.8115 285.511 53.6421 285.938 53.3031C286.365 52.9641 286.681 52.5185 286.886 51.9661C287.091 51.4137 287.193 50.8153 287.193 50.1708C287.193 49.5264 287.091 48.9259 286.886 48.3693C286.681 47.8128 286.365 47.3629 285.938 47.0198C285.511 46.6766 284.967 46.505 284.306 46.505C283.645 46.505 283.1 46.6766 282.674 47.0198C282.247 47.3629 281.931 47.8128 281.726 48.3693C281.521 48.9259 281.418 49.5264 281.418 50.1708C281.418 50.8153 281.521 51.4137 281.726 51.9661C281.931 52.5185 282.247 52.9641 282.674 53.3031C283.1 53.6421 283.645 53.8115 284.306 53.8115ZM292.792 54.9414L289.855 45.2998H291.411L293.495 52.6817H293.596L295.655 45.2998H297.236L299.27 52.6566H299.371L301.455 45.2998H303.011L300.074 54.9414H298.617L296.508 47.5345H296.358L294.249 54.9414H292.792Z" fill="#6C6C6C"/>
</g>
<g filter="url(#filter2_d_127_893)">
<rect x="123" y="92.8867" width="232" height="55.8857" rx="13.2571" fill="white"/>
<path fill-rule="evenodd" clip-rule="evenodd" d="M177.227 114.828C177.227 113.286 178.457 112.093 179.984 111.329C181.557 110.543 183.676 110.078 185.977 110.078C188.277 110.078 190.397 110.543 191.969 111.329C193.496 112.093 194.727 113.286 194.727 114.828V126.828C194.727 128.37 193.496 129.564 191.969 130.327C190.397 131.114 188.277 131.578 185.977 131.578C183.676 131.578 181.557 131.114 179.984 130.327C178.457 129.564 177.227 128.37 177.227 126.828V114.828ZM178.727 114.828C178.727 114.161 179.287 113.355 180.655 112.671C181.978 112.009 183.859 111.578 185.977 111.578C188.095 111.578 189.975 112.009 191.298 112.671C192.666 113.355 193.227 114.161 193.227 114.828C193.227 115.496 192.666 116.302 191.298 116.986C189.975 117.647 188.095 118.078 185.977 118.078C183.859 118.078 181.978 117.647 180.655 116.986C179.287 116.302 178.727 115.496 178.727 114.828ZM178.727 126.828C178.727 127.496 179.287 128.302 180.655 128.986C181.978 129.647 183.859 130.078 185.977 130.078C188.095 130.078 189.975 129.647 191.298 128.986C192.666 128.302 193.227 127.496 193.227 126.828V123.535C192.85 123.836 192.422 124.101 191.969 124.327C190.397 125.114 188.277 125.578 185.977 125.578C183.676 125.578 181.557 125.114 179.984 124.327C179.531 124.101 179.103 123.836 178.727 123.535V126.828ZM193.227 117.535V120.828C193.227 121.496 192.666 122.302 191.298 122.986C189.975 123.647 188.095 124.078 185.977 124.078C183.859 124.078 181.978 123.647 180.655 122.986C179.287 122.302 178.727 121.496 178.727 120.828V117.535C179.103 117.836 179.531 118.101 179.984 118.327C181.557 119.114 183.676 119.578 185.977 119.578C188.277 119.578 190.397 119.114 191.969 118.327C192.422 118.101 192.85 117.836 193.227 117.535Z" fill="#6C6C6C"/>
<path d="M214.957 126.828H210.99V113.973H215.133C216.38 113.973 217.447 114.23 218.334 114.745C219.221 115.255 219.901 115.99 220.374 116.948C220.847 117.902 221.083 119.045 221.083 120.375C221.083 121.714 220.845 122.867 220.368 123.834C219.891 124.796 219.196 125.537 218.284 126.056C217.371 126.571 216.262 126.828 214.957 126.828ZM212.546 125.447H214.856C215.919 125.447 216.8 125.242 217.499 124.832C218.198 124.422 218.719 123.838 219.062 123.081C219.405 122.323 219.577 121.421 219.577 120.375C219.577 119.338 219.407 118.444 219.068 117.695C218.729 116.942 218.223 116.364 217.549 115.963C216.875 115.557 216.036 115.354 215.032 115.354H212.546V125.447ZM226.331 127.054C225.72 127.054 225.165 126.939 224.667 126.709C224.169 126.475 223.774 126.138 223.481 125.698C223.188 125.255 223.042 124.719 223.042 124.091C223.042 123.539 223.15 123.091 223.368 122.748C223.586 122.401 223.876 122.129 224.241 121.932C224.605 121.735 225.006 121.589 225.446 121.493C225.889 121.392 226.335 121.313 226.783 121.254C227.369 121.179 227.844 121.122 228.208 121.085C228.576 121.043 228.844 120.974 229.011 120.877C229.183 120.781 229.268 120.614 229.268 120.375V120.325C229.268 119.706 229.099 119.225 228.76 118.881C228.425 118.538 227.917 118.367 227.235 118.367C226.527 118.367 225.973 118.521 225.571 118.831C225.17 119.141 224.887 119.471 224.724 119.823L223.318 119.321C223.569 118.735 223.904 118.279 224.322 117.952C224.745 117.622 225.205 117.392 225.703 117.262C226.205 117.128 226.699 117.061 227.184 117.061C227.494 117.061 227.85 117.099 228.252 117.174C228.657 117.245 229.049 117.394 229.425 117.62C229.806 117.846 230.122 118.187 230.373 118.643C230.624 119.099 230.75 119.71 230.75 120.476V126.828H229.268V125.522H229.193C229.093 125.732 228.925 125.956 228.691 126.194C228.457 126.433 228.145 126.636 227.756 126.803C227.367 126.97 226.892 127.054 226.331 127.054ZM226.557 125.723C227.143 125.723 227.636 125.608 228.038 125.378C228.444 125.148 228.75 124.851 228.955 124.487C229.164 124.123 229.268 123.74 229.268 123.338V121.982C229.206 122.058 229.068 122.127 228.854 122.189C228.645 122.248 228.402 122.3 228.126 122.346C227.854 122.388 227.588 122.426 227.329 122.459C227.074 122.489 226.866 122.514 226.707 122.535C226.322 122.585 225.963 122.666 225.628 122.779C225.297 122.888 225.029 123.054 224.824 123.275C224.623 123.493 224.523 123.79 224.523 124.167C224.523 124.681 224.713 125.071 225.094 125.334C225.479 125.594 225.967 125.723 226.557 125.723ZM237.647 117.187V118.442H232.65V117.187H237.647ZM234.107 114.877H235.588V124.066C235.588 124.485 235.649 124.799 235.77 125.008C235.895 125.213 236.054 125.351 236.247 125.422C236.444 125.489 236.651 125.522 236.868 125.522C237.032 125.522 237.166 125.514 237.27 125.497C237.375 125.476 237.458 125.46 237.521 125.447L237.823 126.778C237.722 126.816 237.582 126.853 237.402 126.891C237.222 126.933 236.994 126.954 236.718 126.954C236.299 126.954 235.889 126.864 235.487 126.684C235.09 126.504 234.759 126.23 234.496 125.861C234.236 125.493 234.107 125.029 234.107 124.468V114.877ZM242.712 127.054C242.101 127.054 241.547 126.939 241.049 126.709C240.551 126.475 240.155 126.138 239.863 125.698C239.57 125.255 239.423 124.719 239.423 124.091C239.423 123.539 239.532 123.091 239.75 122.748C239.967 122.401 240.258 122.129 240.622 121.932C240.986 121.735 241.388 121.589 241.827 121.493C242.271 121.392 242.717 121.313 243.164 121.254C243.75 121.179 244.225 121.122 244.589 121.085C244.957 121.043 245.225 120.974 245.393 120.877C245.564 120.781 245.65 120.614 245.65 120.375V120.325C245.65 119.706 245.481 119.225 245.142 118.881C244.807 118.538 244.298 118.367 243.616 118.367C242.909 118.367 242.355 118.521 241.953 118.831C241.551 119.141 241.269 119.471 241.105 119.823L239.699 119.321C239.95 118.735 240.285 118.279 240.704 117.952C241.126 117.622 241.587 117.392 242.085 117.262C242.587 117.128 243.081 117.061 243.566 117.061C243.876 117.061 244.231 117.099 244.633 117.174C245.039 117.245 245.43 117.394 245.807 117.62C246.188 117.846 246.504 118.187 246.755 118.643C247.006 119.099 247.131 119.71 247.131 120.476V126.828H245.65V125.522H245.575C245.474 125.732 245.307 125.956 245.073 126.194C244.838 126.433 244.526 126.636 244.137 126.803C243.748 126.97 243.273 127.054 242.712 127.054ZM242.938 125.723C243.524 125.723 244.018 125.608 244.42 125.378C244.826 125.148 245.131 124.851 245.336 124.487C245.545 124.123 245.65 123.74 245.65 123.338V121.982C245.587 122.058 245.449 122.127 245.236 122.189C245.026 122.248 244.784 122.3 244.508 122.346C244.236 122.388 243.97 122.426 243.71 122.459C243.455 122.489 243.248 122.514 243.089 122.535C242.704 122.585 242.344 122.666 242.009 122.779C241.679 122.888 241.411 123.054 241.206 123.275C241.005 123.493 240.905 123.79 240.905 124.167C240.905 124.681 241.095 125.071 241.476 125.334C241.861 125.594 242.348 125.723 242.938 125.723ZM256.564 113.973V126.828H255.008V113.973H256.564ZM260.966 121.028V126.828H259.485V117.187H260.916V118.693H261.041C261.267 118.203 261.61 117.81 262.071 117.513C262.531 117.212 263.125 117.061 263.853 117.061C264.506 117.061 265.077 117.195 265.567 117.463C266.057 117.726 266.438 118.128 266.71 118.668C266.982 119.204 267.118 119.882 267.118 120.702V126.828H265.636V120.802C265.636 120.045 265.439 119.455 265.046 119.032C264.653 118.605 264.113 118.392 263.427 118.392C262.954 118.392 262.531 118.494 262.159 118.699C261.79 118.904 261.5 119.204 261.286 119.597C261.073 119.99 260.966 120.467 260.966 121.028ZM274.118 117.187V118.442H268.921V117.187H274.118ZM270.477 126.828V115.856C270.477 115.303 270.607 114.843 270.867 114.475C271.126 114.107 271.463 113.83 271.877 113.646C272.291 113.462 272.729 113.37 273.189 113.37C273.553 113.37 273.85 113.399 274.08 113.458C274.311 113.517 274.482 113.571 274.595 113.621L274.168 114.902C274.093 114.877 273.988 114.845 273.854 114.808C273.725 114.77 273.553 114.751 273.34 114.751C272.85 114.751 272.496 114.875 272.279 115.121C272.065 115.368 271.959 115.73 271.959 116.207V126.828H270.477ZM277.676 113.973V126.828H276.194V113.973H277.676ZM284.306 127.029C283.435 127.029 282.672 126.822 282.015 126.408C281.362 125.993 280.851 125.414 280.483 124.669C280.119 123.924 279.937 123.054 279.937 122.058C279.937 121.053 280.119 120.177 280.483 119.427C280.851 118.678 281.362 118.097 282.015 117.682C282.672 117.268 283.435 117.061 284.306 117.061C285.176 117.061 285.938 117.268 286.591 117.682C287.248 118.097 287.758 118.678 288.122 119.427C288.49 120.177 288.675 121.053 288.675 122.058C288.675 123.054 288.49 123.924 288.122 124.669C287.758 125.414 287.248 125.993 286.591 126.408C285.938 126.822 285.176 127.029 284.306 127.029ZM284.306 125.698C284.967 125.698 285.511 125.529 285.938 125.19C286.365 124.851 286.681 124.405 286.886 123.853C287.091 123.3 287.193 122.702 287.193 122.058C287.193 121.413 287.091 120.813 286.886 120.256C286.681 119.699 286.365 119.25 285.938 118.906C285.511 118.563 284.967 118.392 284.306 118.392C283.645 118.392 283.1 118.563 282.674 118.906C282.247 119.25 281.931 119.699 281.726 120.256C281.521 120.813 281.418 121.413 281.418 122.058C281.418 122.702 281.521 123.3 281.726 123.853C281.931 124.405 282.247 124.851 282.674 125.19C283.1 125.529 283.645 125.698 284.306 125.698ZM292.792 126.828L289.855 117.187H291.411L293.495 124.568H293.596L295.655 117.187H297.236L299.27 124.543H299.371L301.455 117.187H303.011L300.074 126.828H298.617L296.508 119.421H296.358L294.249 126.828H292.792Z" fill="#6C6C6C"/>
</g>
<g filter="url(#filter3_d_127_893)">
<rect x="123" y="164.77" width="232" height="55.8857" rx="13.2571" fill="white"/>
<path fill-rule="evenodd" clip-rule="evenodd" d="M150.04 184.704C147.002 184.704 144.556 187.135 144.556 190.114C144.556 190.625 144.627 191.118 144.76 191.585C145.31 191.743 145.824 191.983 146.288 192.291C146.67 192.543 146.775 193.057 146.522 193.439C146.27 193.82 145.756 193.925 145.374 193.673C144.954 193.394 144.475 193.195 143.961 193.095C143.716 193.047 143.462 193.022 143.201 193.022C141.034 193.022 139.295 194.755 139.295 196.873C139.295 198.99 141.034 200.723 143.201 200.723H154.249C157.287 200.723 159.733 198.292 159.733 195.313C159.733 192.952 158.198 190.936 156.046 190.2C155.484 190.008 154.88 189.903 154.249 189.903C153.605 189.903 152.989 190.012 152.417 190.212C151.985 190.362 151.513 190.135 151.362 189.703C151.211 189.271 151.439 188.798 151.871 188.647C152.616 188.387 153.417 188.246 154.249 188.246C154.575 188.246 154.897 188.267 155.212 188.31C154.46 186.213 152.433 184.704 150.04 184.704ZM157.061 188.815C156.443 185.526 153.529 183.047 150.04 183.047C146.105 183.047 142.898 186.202 142.898 190.114C142.898 190.542 142.937 190.961 143.011 191.368C140.035 191.467 137.638 193.885 137.638 196.873C137.638 199.924 140.138 202.38 143.201 202.38H154.249C158.183 202.38 161.39 199.225 161.39 195.313C161.39 192.392 159.602 189.894 157.061 188.815Z" fill="#1F1F1F"/>
<path d="M175.808 198.711V185.856H183.567V187.236H177.365V191.58H183.165V192.961H177.365V197.33H183.667V198.711H175.808ZM187.653 192.911V198.711H186.172V189.069H187.603V190.576H187.729C187.955 190.086 188.298 189.693 188.758 189.396C189.218 189.094 189.813 188.944 190.541 188.944C191.194 188.944 191.765 189.078 192.254 189.346C192.744 189.609 193.125 190.011 193.397 190.551C193.669 191.086 193.805 191.764 193.805 192.585V198.711H192.323V192.685C192.323 191.928 192.127 191.337 191.733 190.915C191.34 190.488 190.8 190.275 190.114 190.275C189.641 190.275 189.218 190.377 188.846 190.582C188.478 190.787 188.187 191.086 187.973 191.48C187.76 191.873 187.653 192.35 187.653 192.911ZM200.429 198.912C199.525 198.912 198.746 198.698 198.094 198.272C197.441 197.845 196.939 197.257 196.587 196.508C196.236 195.759 196.06 194.903 196.06 193.94C196.06 192.961 196.24 192.097 196.6 191.348C196.964 190.595 197.47 190.007 198.119 189.584C198.772 189.157 199.533 188.944 200.404 188.944C201.081 188.944 201.692 189.069 202.236 189.32C202.78 189.572 203.226 189.923 203.573 190.375C203.921 190.827 204.136 191.354 204.22 191.957H202.739C202.626 191.517 202.375 191.128 201.985 190.789C201.6 190.446 201.081 190.275 200.429 190.275C199.851 190.275 199.345 190.425 198.91 190.727C198.479 191.024 198.142 191.444 197.899 191.988C197.66 192.528 197.541 193.162 197.541 193.89C197.541 194.635 197.658 195.284 197.893 195.836C198.131 196.388 198.466 196.817 198.897 197.123C199.332 197.428 199.843 197.581 200.429 197.581C200.814 197.581 201.163 197.514 201.477 197.38C201.791 197.246 202.057 197.054 202.274 196.803C202.492 196.552 202.647 196.25 202.739 195.899H204.22C204.136 196.468 203.929 196.981 203.599 197.437C203.272 197.889 202.839 198.249 202.299 198.516C201.764 198.78 201.14 198.912 200.429 198.912ZM206.386 198.711V189.069H207.817V190.526H207.917C208.093 190.049 208.411 189.662 208.871 189.364C209.332 189.067 209.851 188.919 210.428 188.919C210.537 188.919 210.673 188.921 210.836 188.925C210.999 188.929 211.123 188.935 211.206 188.944V190.45C211.156 190.438 211.041 190.419 210.861 190.394C210.685 190.365 210.499 190.35 210.302 190.35C209.834 190.35 209.415 190.448 209.047 190.645C208.683 190.837 208.394 191.105 208.181 191.448C207.972 191.787 207.867 192.174 207.867 192.61V198.711H206.386ZM214.21 202.327C213.959 202.327 213.735 202.306 213.538 202.264C213.342 202.226 213.206 202.188 213.13 202.151L213.507 200.845C213.867 200.937 214.185 200.971 214.461 200.946C214.737 200.92 214.982 200.797 215.195 200.575C215.413 200.358 215.612 200.004 215.792 199.514L216.068 198.761L212.503 189.069H214.11L216.771 196.752H216.871L219.533 189.069H221.14L217.047 200.117C216.863 200.615 216.635 201.027 216.363 201.354C216.091 201.684 215.775 201.929 215.415 202.088C215.059 202.247 214.658 202.327 214.21 202.327ZM223.095 202.327V189.069H224.526V190.601H224.702C224.811 190.434 224.962 190.22 225.154 189.961C225.351 189.697 225.631 189.463 225.995 189.258C226.363 189.048 226.861 188.944 227.489 188.944C228.301 188.944 229.016 189.147 229.636 189.553C230.255 189.959 230.738 190.534 231.086 191.279C231.433 192.024 231.607 192.903 231.607 193.915C231.607 194.936 231.433 195.821 231.086 196.57C230.738 197.315 230.257 197.893 229.642 198.303C229.027 198.709 228.318 198.912 227.514 198.912C226.895 198.912 226.399 198.809 226.027 198.604C225.654 198.395 225.367 198.159 225.167 197.895C224.966 197.627 224.811 197.405 224.702 197.23H224.577V202.327H223.095ZM224.551 193.89C224.551 194.618 224.658 195.261 224.872 195.817C225.085 196.37 225.397 196.803 225.807 197.117C226.217 197.426 226.719 197.581 227.313 197.581C227.933 197.581 228.449 197.418 228.864 197.091C229.282 196.761 229.596 196.317 229.805 195.761C230.019 195.2 230.125 194.576 230.125 193.89C230.125 193.212 230.021 192.601 229.812 192.057C229.607 191.509 229.295 191.076 228.876 190.758C228.462 190.436 227.941 190.275 227.313 190.275C226.711 190.275 226.204 190.427 225.794 190.733C225.384 191.034 225.074 191.457 224.865 192.001C224.656 192.541 224.551 193.17 224.551 193.89ZM238.06 189.069V190.325H233.063V189.069H238.06ZM234.519 186.759H236.001V195.949C236.001 196.368 236.061 196.681 236.183 196.891C236.308 197.096 236.467 197.234 236.66 197.305C236.857 197.372 237.064 197.405 237.281 197.405C237.444 197.405 237.578 197.397 237.683 197.38C237.788 197.359 237.871 197.343 237.934 197.33L238.235 198.661C238.135 198.698 237.995 198.736 237.815 198.774C237.635 198.816 237.407 198.836 237.131 198.836C236.712 198.836 236.302 198.747 235.9 198.567C235.503 198.387 235.172 198.113 234.909 197.744C234.649 197.376 234.519 196.912 234.519 196.351V186.759ZM244.227 198.912C243.298 198.912 242.496 198.707 241.823 198.297C241.153 197.882 240.636 197.305 240.272 196.564C239.912 195.819 239.732 194.953 239.732 193.965C239.732 192.978 239.912 192.107 240.272 191.354C240.636 190.597 241.143 190.007 241.791 189.584C242.444 189.157 243.206 188.944 244.076 188.944C244.578 188.944 245.074 189.028 245.564 189.195C246.053 189.362 246.499 189.634 246.901 190.011C247.303 190.383 247.623 190.877 247.861 191.492C248.1 192.107 248.219 192.865 248.219 193.765V194.392H240.787V193.112H246.713C246.713 192.568 246.604 192.082 246.386 191.656C246.173 191.229 245.867 190.892 245.47 190.645C245.076 190.398 244.612 190.275 244.076 190.275C243.486 190.275 242.976 190.421 242.545 190.714C242.118 191.003 241.789 191.379 241.559 191.844C241.329 192.308 241.214 192.806 241.214 193.338V194.191C241.214 194.92 241.339 195.537 241.59 196.043C241.846 196.545 242.199 196.928 242.651 197.192C243.103 197.451 243.628 197.581 244.227 197.581C244.616 197.581 244.968 197.527 245.281 197.418C245.599 197.305 245.874 197.137 246.104 196.916C246.334 196.69 246.512 196.409 246.637 196.075L248.068 196.476C247.918 196.962 247.665 197.389 247.309 197.757C246.953 198.121 246.514 198.405 245.991 198.611C245.468 198.811 244.88 198.912 244.227 198.912ZM254.113 198.912C253.31 198.912 252.6 198.709 251.985 198.303C251.37 197.893 250.889 197.315 250.542 196.57C250.194 195.821 250.021 194.936 250.021 193.915C250.021 192.903 250.194 192.024 250.542 191.279C250.889 190.534 251.372 189.959 251.992 189.553C252.611 189.147 253.326 188.944 254.138 188.944C254.766 188.944 255.262 189.048 255.626 189.258C255.994 189.463 256.275 189.697 256.467 189.961C256.664 190.22 256.817 190.434 256.925 190.601H257.051V185.856H258.532V198.711H257.101V197.23H256.925C256.817 197.405 256.662 197.627 256.461 197.895C256.26 198.159 255.973 198.395 255.601 198.604C255.228 198.809 254.733 198.912 254.113 198.912ZM254.314 197.581C254.908 197.581 255.41 197.426 255.821 197.117C256.231 196.803 256.542 196.37 256.756 195.817C256.969 195.261 257.076 194.618 257.076 193.89C257.076 193.17 256.971 192.541 256.762 192.001C256.553 191.457 256.243 191.034 255.833 190.733C255.423 190.427 254.917 190.275 254.314 190.275C253.686 190.275 253.163 190.436 252.745 190.758C252.331 191.076 252.019 191.509 251.81 192.057C251.604 192.601 251.502 193.212 251.502 193.89C251.502 194.576 251.607 195.2 251.816 195.761C252.029 196.317 252.343 196.761 252.757 197.091C253.176 197.418 253.695 197.581 254.314 197.581ZM270.063 198.912C269.26 198.912 268.55 198.709 267.935 198.303C267.32 197.893 266.839 197.315 266.492 196.57C266.144 195.821 265.971 194.936 265.971 193.915C265.971 192.903 266.144 192.024 266.492 191.279C266.839 190.534 267.322 189.959 267.942 189.553C268.561 189.147 269.276 188.944 270.088 188.944C270.716 188.944 271.212 189.048 271.576 189.258C271.944 189.463 272.225 189.697 272.417 189.961C272.614 190.22 272.767 190.434 272.875 190.601H273.001V185.856H274.482V198.711H273.051V197.23H272.875C272.767 197.405 272.612 197.627 272.411 197.895C272.21 198.159 271.923 198.395 271.551 198.604C271.178 198.809 270.683 198.912 270.063 198.912ZM270.264 197.581C270.858 197.581 271.36 197.426 271.771 197.117C272.181 196.803 272.492 196.37 272.706 195.817C272.919 195.261 273.026 194.618 273.026 193.89C273.026 193.17 272.921 192.541 272.712 192.001C272.503 191.457 272.193 191.034 271.783 190.733C271.373 190.427 270.867 190.275 270.264 190.275C269.636 190.275 269.113 190.436 268.695 190.758C268.281 191.076 267.969 191.509 267.76 192.057C267.554 192.601 267.452 193.212 267.452 193.89C267.452 194.576 267.557 195.2 267.766 195.761C267.979 196.317 268.293 196.761 268.707 197.091C269.126 197.418 269.645 197.581 270.264 197.581ZM280.238 198.937C279.627 198.937 279.073 198.822 278.575 198.592C278.077 198.357 277.681 198.02 277.389 197.581C277.096 197.137 276.949 196.602 276.949 195.974C276.949 195.422 277.058 194.974 277.276 194.631C277.493 194.284 277.784 194.012 278.148 193.815C278.512 193.618 278.914 193.472 279.353 193.375C279.797 193.275 280.242 193.195 280.69 193.137C281.276 193.062 281.751 193.005 282.115 192.967C282.483 192.926 282.751 192.857 282.919 192.76C283.09 192.664 283.176 192.497 283.176 192.258V192.208C283.176 191.589 283.006 191.107 282.668 190.764C282.333 190.421 281.824 190.249 281.142 190.249C280.435 190.249 279.881 190.404 279.479 190.714C279.077 191.024 278.795 191.354 278.631 191.706L277.225 191.204C277.476 190.618 277.811 190.162 278.23 189.835C278.652 189.505 279.113 189.274 279.611 189.145C280.113 189.011 280.607 188.944 281.092 188.944C281.402 188.944 281.757 188.981 282.159 189.057C282.565 189.128 282.956 189.277 283.333 189.502C283.714 189.728 284.03 190.07 284.281 190.526C284.532 190.982 284.657 191.593 284.657 192.359V198.711H283.176V197.405H283.101C283 197.615 282.833 197.838 282.598 198.077C282.364 198.315 282.052 198.518 281.663 198.686C281.274 198.853 280.799 198.937 280.238 198.937ZM280.464 197.606C281.05 197.606 281.544 197.491 281.946 197.261C282.352 197.031 282.657 196.734 282.862 196.37C283.071 196.006 283.176 195.623 283.176 195.221V193.865C283.113 193.94 282.975 194.009 282.762 194.072C282.552 194.131 282.31 194.183 282.034 194.229C281.762 194.271 281.496 194.309 281.236 194.342C280.981 194.371 280.774 194.397 280.615 194.417C280.23 194.468 279.87 194.549 279.535 194.662C279.205 194.771 278.937 194.936 278.732 195.158C278.531 195.376 278.431 195.673 278.431 196.049C278.431 196.564 278.621 196.953 279.002 197.217C279.387 197.476 279.874 197.606 280.464 197.606ZM291.554 189.069V190.325H286.558V189.069H291.554ZM288.014 186.759H289.495V195.949C289.495 196.368 289.556 196.681 289.677 196.891C289.803 197.096 289.962 197.234 290.154 197.305C290.351 197.372 290.558 197.405 290.776 197.405C290.939 197.405 291.073 197.397 291.178 197.38C291.282 197.359 291.366 197.343 291.429 197.33L291.73 198.661C291.63 198.698 291.489 198.736 291.309 198.774C291.13 198.816 290.901 198.836 290.625 198.836C290.207 198.836 289.797 198.747 289.395 198.567C288.997 198.387 288.667 198.113 288.403 197.744C288.144 197.376 288.014 196.912 288.014 196.351V186.759ZM296.62 198.937C296.009 198.937 295.454 198.822 294.956 198.592C294.458 198.357 294.063 198.02 293.77 197.581C293.477 197.137 293.331 196.602 293.331 195.974C293.331 195.422 293.439 194.974 293.657 194.631C293.875 194.284 294.166 194.012 294.53 193.815C294.894 193.618 295.295 193.472 295.735 193.375C296.178 193.275 296.624 193.195 297.072 193.137C297.658 193.062 298.133 193.005 298.497 192.967C298.865 192.926 299.133 192.857 299.3 192.76C299.472 192.664 299.558 192.497 299.558 192.258V192.208C299.558 191.589 299.388 191.107 299.049 190.764C298.714 190.421 298.206 190.249 297.524 190.249C296.817 190.249 296.262 190.404 295.86 190.714C295.459 191.024 295.176 191.354 295.013 191.706L293.607 191.204C293.858 190.618 294.193 190.162 294.611 189.835C295.034 189.505 295.494 189.274 295.992 189.145C296.494 189.011 296.988 188.944 297.474 188.944C297.783 188.944 298.139 188.981 298.541 189.057C298.947 189.128 299.338 189.277 299.714 189.502C300.095 189.728 300.411 190.07 300.662 190.526C300.913 190.982 301.039 191.593 301.039 192.359V198.711H299.558V197.405H299.482C299.382 197.615 299.214 197.838 298.98 198.077C298.746 198.315 298.434 198.518 298.045 198.686C297.656 198.853 297.181 198.937 296.62 198.937ZM296.846 197.606C297.432 197.606 297.925 197.491 298.327 197.261C298.733 197.031 299.039 196.734 299.244 196.37C299.453 196.006 299.558 195.623 299.558 195.221V193.865C299.495 193.94 299.357 194.009 299.143 194.072C298.934 194.131 298.691 194.183 298.415 194.229C298.143 194.271 297.877 194.309 297.618 194.342C297.363 194.371 297.155 194.397 296.996 194.417C296.611 194.468 296.252 194.549 295.917 194.662C295.586 194.771 295.318 194.936 295.113 195.158C294.912 195.376 294.812 195.673 294.812 196.049C294.812 196.564 295.002 196.953 295.383 197.217C295.768 197.476 296.256 197.606 296.846 197.606Z" fill="#232323"/>
</g>
<path d="M75.4287 115.613C40.0824 115.613 11.4287 86.9595 11.4287 51.6133L11.4287 15.9947L466.72 15.9947L466.72 51.6133C466.72 86.9595 438.066 115.613 402.72 115.613L75.4287 115.613Z" fill="url(#paint0_linear_127_893)"/>
<path d="M75.4287 115.613C40.0824 115.613 11.4287 86.9595 11.4287 51.6133L11.4287 15.9947L466.72 15.9947L466.72 51.6133C466.72 86.9595 438.066 115.613 402.72 115.613L75.4287 115.613Z" fill="url(#paint1_linear_127_893)"/>
<path d="M75 93C39.6538 93 11 64.3462 11 29L11 16L467 16L467 29C467 64.3462 438.346 93 403 93L75 93Z" fill="url(#paint2_linear_127_893)"/>
<g filter="url(#filter4_d_127_893)">
<rect x="123" y="236.656" width="232" height="55.8857" rx="13.2571" fill="white"/>
<path fill-rule="evenodd" clip-rule="evenodd" d="M172.727 254.598C172.727 254.183 172.391 253.848 171.977 253.848C171.562 253.848 171.227 254.183 171.227 254.598V256.598C171.227 256.598 171.227 256.599 171.227 256.599V272.596C171.227 272.596 171.227 272.597 171.227 272.597V274.598C171.227 275.012 171.562 275.348 171.977 275.348C172.391 275.348 172.727 275.012 172.727 274.598V273.342C173.936 273.33 174.947 273.288 175.785 273.146C176.813 272.972 177.657 272.634 178.335 271.956C179.084 271.208 179.416 270.259 179.573 269.087C179.727 267.947 179.727 266.492 179.727 264.654V264.541C179.727 262.704 179.727 261.248 179.573 260.109C179.416 258.936 179.084 257.987 178.335 257.239C177.657 256.561 176.813 256.224 175.785 256.049C174.947 255.907 173.936 255.866 172.727 255.853V254.598ZM172.727 257.353V271.842C173.913 271.829 174.816 271.789 175.535 271.667C176.376 271.524 176.89 271.281 177.275 270.896C177.698 270.473 177.952 269.893 178.087 268.887C178.225 267.859 178.227 266.504 178.227 264.598C178.227 262.691 178.225 261.336 178.087 260.309C177.952 259.302 177.698 258.723 177.275 258.3C176.89 257.915 176.376 257.671 175.535 257.528C174.816 257.406 173.913 257.366 172.727 257.353Z" fill="#6C6C6C"/>
<path d="M166.92 255.848C165.082 255.848 163.627 255.848 162.488 256.001C161.315 256.158 160.366 256.491 159.618 257.239C158.869 257.987 158.537 258.936 158.38 260.109C158.227 261.248 158.227 262.703 158.227 264.541V264.654C158.227 266.492 158.227 267.947 158.38 269.087C158.537 270.259 158.869 271.208 159.618 271.956C160.366 272.705 161.315 273.037 162.488 273.195C163.627 273.348 165.082 273.348 166.92 273.348H168.977C169.391 273.348 169.727 273.012 169.727 272.598C169.727 272.183 169.391 271.848 168.977 271.848H166.977C165.07 271.848 163.715 271.846 162.687 271.708C161.681 271.573 161.102 271.319 160.678 270.896C160.255 270.473 160.002 269.893 159.866 268.887C159.728 267.859 159.727 266.504 159.727 264.598C159.727 262.691 159.728 261.336 159.866 260.309C160.002 259.302 160.255 258.723 160.678 258.3C161.102 257.876 161.681 257.623 162.687 257.487C163.715 257.349 165.07 257.348 166.977 257.348H168.977C169.391 257.348 169.727 257.012 169.727 256.598C169.727 256.183 169.391 255.848 168.977 255.848L166.92 255.848Z" fill="#6C6C6C"/>
<path d="M164.977 265.598C165.529 265.598 165.977 265.15 165.977 264.598C165.977 264.045 165.529 263.598 164.977 263.598C164.424 263.598 163.977 264.045 163.977 264.598C163.977 265.15 164.424 265.598 164.977 265.598Z" fill="#6C6C6C"/>
<path d="M169.977 264.598C169.977 265.15 169.529 265.598 168.977 265.598C168.424 265.598 167.977 265.15 167.977 264.598C167.977 264.045 168.424 263.598 168.977 263.598C169.529 263.598 169.977 264.045 169.977 264.598Z" fill="#6C6C6C"/>
<path d="M194.013 270.598V257.742H201.771V259.123H195.569V263.467H201.369V264.848H195.569V269.217H201.871V270.598H194.013ZM205.857 264.798V270.598H204.376V260.956H205.807V262.463H205.933C206.159 261.973 206.502 261.58 206.962 261.283C207.422 260.981 208.017 260.831 208.745 260.831C209.398 260.831 209.969 260.964 210.458 261.232C210.948 261.496 211.329 261.898 211.601 262.437C211.873 262.973 212.009 263.651 212.009 264.471V270.598H210.528V264.572C210.528 263.814 210.331 263.224 209.937 262.802C209.544 262.375 209.004 262.161 208.318 262.161C207.845 262.161 207.422 262.264 207.05 262.469C206.682 262.674 206.391 262.973 206.178 263.366C205.964 263.76 205.857 264.237 205.857 264.798ZM218.633 270.799C217.729 270.799 216.951 270.585 216.298 270.158C215.645 269.731 215.143 269.143 214.791 268.394C214.44 267.645 214.264 266.79 214.264 265.827C214.264 264.848 214.444 263.984 214.804 263.235C215.168 262.481 215.674 261.893 216.323 261.471C216.976 261.044 217.737 260.831 218.608 260.831C219.286 260.831 219.897 260.956 220.441 261.207C220.985 261.458 221.43 261.81 221.778 262.262C222.125 262.714 222.34 263.241 222.424 263.844H220.943C220.83 263.404 220.579 263.015 220.189 262.676C219.804 262.333 219.286 262.161 218.633 262.161C218.055 262.161 217.549 262.312 217.114 262.613C216.683 262.91 216.346 263.331 216.103 263.875C215.865 264.415 215.745 265.049 215.745 265.777C215.745 266.522 215.862 267.17 216.097 267.723C216.335 268.275 216.67 268.704 217.101 269.01C217.536 269.315 218.047 269.468 218.633 269.468C219.018 269.468 219.367 269.401 219.681 269.267C219.995 269.133 220.261 268.941 220.478 268.689C220.696 268.438 220.851 268.137 220.943 267.786H222.424C222.34 268.355 222.133 268.867 221.803 269.323C221.476 269.775 221.043 270.135 220.503 270.403C219.968 270.667 219.344 270.799 218.633 270.799ZM224.59 270.598V260.956H226.021V262.412H226.121C226.297 261.935 226.615 261.548 227.075 261.251C227.536 260.954 228.055 260.805 228.632 260.805C228.741 260.805 228.877 260.808 229.04 260.812C229.203 260.816 229.327 260.822 229.41 260.831V262.337C229.36 262.324 229.245 262.306 229.065 262.281C228.889 262.251 228.703 262.237 228.507 262.237C228.038 262.237 227.619 262.335 227.251 262.532C226.887 262.724 226.598 262.992 226.385 263.335C226.176 263.674 226.071 264.061 226.071 264.496V270.598H224.59ZM232.414 274.213C232.163 274.213 231.939 274.192 231.742 274.15C231.546 274.113 231.41 274.075 231.334 274.037L231.711 272.732C232.071 272.824 232.389 272.857 232.665 272.832C232.941 272.807 233.186 272.684 233.4 272.462C233.617 272.244 233.816 271.891 233.996 271.401L234.272 270.648L230.707 260.956H232.314L234.975 268.639H235.076L237.737 260.956H239.344L235.251 272.004C235.067 272.502 234.839 272.914 234.567 273.24C234.295 273.571 233.979 273.816 233.619 273.975C233.264 274.134 232.862 274.213 232.414 274.213ZM241.299 274.213V260.956H242.73V262.488H242.906C243.015 262.32 243.166 262.107 243.358 261.847C243.555 261.584 243.835 261.349 244.199 261.144C244.567 260.935 245.065 260.831 245.693 260.831C246.505 260.831 247.221 261.034 247.84 261.439C248.459 261.845 248.943 262.421 249.29 263.166C249.637 263.91 249.811 264.789 249.811 265.802C249.811 266.823 249.637 267.708 249.29 268.457C248.943 269.202 248.461 269.78 247.846 270.19C247.231 270.596 246.522 270.799 245.718 270.799C245.099 270.799 244.603 270.696 244.231 270.491C243.858 270.282 243.572 270.045 243.371 269.782C243.17 269.514 243.015 269.292 242.906 269.116H242.781V274.213H241.299ZM242.756 265.777C242.756 266.505 242.862 267.147 243.076 267.704C243.289 268.256 243.601 268.689 244.011 269.003C244.421 269.313 244.923 269.468 245.517 269.468C246.137 269.468 246.654 269.305 247.068 268.978C247.486 268.648 247.8 268.204 248.009 267.647C248.223 267.087 248.33 266.463 248.33 265.777C248.33 265.099 248.225 264.488 248.016 263.944C247.811 263.396 247.499 262.963 247.08 262.645C246.666 262.322 246.145 262.161 245.517 262.161C244.915 262.161 244.408 262.314 243.998 262.62C243.588 262.921 243.279 263.343 243.069 263.887C242.86 264.427 242.756 265.057 242.756 265.777ZM256.264 260.956V262.212H251.267V260.956H256.264ZM252.723 258.646H254.205V267.836C254.205 268.254 254.266 268.568 254.387 268.777C254.512 268.982 254.671 269.12 254.864 269.192C255.061 269.259 255.268 269.292 255.485 269.292C255.649 269.292 255.782 269.284 255.887 269.267C255.992 269.246 256.075 269.229 256.138 269.217L256.439 270.547C256.339 270.585 256.199 270.623 256.019 270.66C255.839 270.702 255.611 270.723 255.335 270.723C254.916 270.723 254.506 270.633 254.104 270.453C253.707 270.273 253.376 269.999 253.113 269.631C252.853 269.263 252.723 268.798 252.723 268.237V258.646ZM262.431 270.799C261.502 270.799 260.701 270.593 260.027 270.183C259.357 269.769 258.84 269.192 258.476 268.451C258.117 267.706 257.937 266.84 257.937 265.852C257.937 264.865 258.117 263.994 258.476 263.241C258.84 262.484 259.347 261.893 259.995 261.471C260.648 261.044 261.41 260.831 262.28 260.831C262.782 260.831 263.278 260.914 263.768 261.082C264.258 261.249 264.703 261.521 265.105 261.898C265.507 262.27 265.827 262.764 266.065 263.379C266.304 263.994 266.423 264.752 266.423 265.651V266.279H258.991V264.999H264.917C264.917 264.455 264.808 263.969 264.59 263.542C264.377 263.115 264.071 262.779 263.674 262.532C263.28 262.285 262.816 262.161 262.28 262.161C261.69 262.161 261.18 262.308 260.749 262.601C260.322 262.889 259.993 263.266 259.763 263.731C259.533 264.195 259.418 264.693 259.418 265.224V266.078C259.418 266.806 259.543 267.424 259.795 267.93C260.05 268.432 260.403 268.815 260.855 269.079C261.307 269.338 261.833 269.468 262.431 269.468C262.82 269.468 263.172 269.413 263.485 269.305C263.804 269.192 264.078 269.024 264.308 268.802C264.538 268.576 264.716 268.296 264.841 267.961L266.272 268.363C266.122 268.848 265.869 269.275 265.513 269.644C265.157 270.008 264.718 270.292 264.195 270.497C263.672 270.698 263.084 270.799 262.431 270.799ZM272.317 270.799C271.514 270.799 270.805 270.596 270.189 270.19C269.574 269.78 269.093 269.202 268.746 268.457C268.398 267.708 268.225 266.823 268.225 265.802C268.225 264.789 268.398 263.91 268.746 263.166C269.093 262.421 269.576 261.845 270.196 261.439C270.815 261.034 271.531 260.831 272.342 260.831C272.97 260.831 273.466 260.935 273.83 261.144C274.198 261.349 274.479 261.584 274.671 261.847C274.868 262.107 275.021 262.32 275.129 262.488H275.255V257.742H276.736V270.598H275.305V269.116H275.129C275.021 269.292 274.866 269.514 274.665 269.782C274.464 270.045 274.177 270.282 273.805 270.491C273.433 270.696 272.937 270.799 272.317 270.799ZM272.518 269.468C273.112 269.468 273.615 269.313 274.025 269.003C274.435 268.689 274.747 268.256 274.96 267.704C275.173 267.147 275.28 266.505 275.28 265.777C275.28 265.057 275.175 264.427 274.966 263.887C274.757 263.343 274.447 262.921 274.037 262.62C273.627 262.314 273.121 262.161 272.518 262.161C271.89 262.161 271.367 262.322 270.949 262.645C270.535 262.963 270.223 263.396 270.014 263.944C269.809 264.488 269.706 265.099 269.706 265.777C269.706 266.463 269.811 267.087 270.02 267.647C270.233 268.204 270.547 268.648 270.961 268.978C271.38 269.305 271.899 269.468 272.518 269.468ZM288.267 270.799C287.464 270.799 286.755 270.596 286.139 270.19C285.524 269.78 285.043 269.202 284.696 268.457C284.348 267.708 284.175 266.823 284.175 265.802C284.175 264.789 284.348 263.91 284.696 263.166C285.043 262.421 285.526 261.845 286.146 261.439C286.765 261.034 287.481 260.831 288.292 260.831C288.92 260.831 289.416 260.935 289.78 261.144C290.148 261.349 290.429 261.584 290.621 261.847C290.818 262.107 290.971 262.32 291.079 262.488H291.205V257.742H292.686V270.598H291.255V269.116H291.079C290.971 269.292 290.816 269.514 290.615 269.782C290.414 270.045 290.127 270.282 289.755 270.491C289.383 270.696 288.887 270.799 288.267 270.799ZM288.468 269.468C289.062 269.468 289.565 269.313 289.975 269.003C290.385 268.689 290.697 268.256 290.91 267.704C291.123 267.147 291.23 266.505 291.23 265.777C291.23 265.057 291.125 264.427 290.916 263.887C290.707 263.343 290.397 262.921 289.987 262.62C289.577 262.314 289.071 262.161 288.468 262.161C287.84 262.161 287.317 262.322 286.899 262.645C286.485 262.963 286.173 263.396 285.964 263.944C285.759 264.488 285.656 265.099 285.656 265.777C285.656 266.463 285.761 267.087 285.97 267.647C286.183 268.204 286.497 268.648 286.911 268.978C287.33 269.305 287.849 269.468 288.468 269.468ZM298.442 270.824C297.831 270.824 297.277 270.709 296.779 270.478C296.281 270.244 295.886 269.907 295.593 269.468C295.3 269.024 295.153 268.489 295.153 267.861C295.153 267.308 295.262 266.861 295.48 266.518C295.697 266.17 295.988 265.898 296.352 265.702C296.716 265.505 297.118 265.358 297.557 265.262C298.001 265.162 298.447 265.082 298.894 265.024C299.48 264.948 299.955 264.892 300.319 264.854C300.688 264.812 300.955 264.743 301.123 264.647C301.294 264.551 301.38 264.383 301.38 264.145V264.095C301.38 263.475 301.211 262.994 300.872 262.651C300.537 262.308 300.028 262.136 299.346 262.136C298.639 262.136 298.085 262.291 297.683 262.601C297.281 262.91 296.999 263.241 296.835 263.592L295.429 263.09C295.681 262.504 296.015 262.048 296.434 261.722C296.856 261.391 297.317 261.161 297.815 261.031C298.317 260.898 298.811 260.831 299.296 260.831C299.606 260.831 299.961 260.868 300.363 260.944C300.769 261.015 301.16 261.163 301.537 261.389C301.918 261.615 302.234 261.956 302.485 262.412C302.736 262.869 302.861 263.479 302.861 264.245V270.598H301.38V269.292H301.305C301.204 269.501 301.037 269.725 300.803 269.964C300.568 270.202 300.256 270.405 299.867 270.573C299.478 270.74 299.003 270.824 298.442 270.824ZM298.668 269.493C299.254 269.493 299.748 269.378 300.15 269.148C300.556 268.917 300.861 268.62 301.066 268.256C301.275 267.892 301.38 267.509 301.38 267.108V265.752C301.317 265.827 301.179 265.896 300.966 265.959C300.757 266.017 300.514 266.07 300.238 266.116C299.966 266.158 299.7 266.195 299.44 266.229C299.185 266.258 298.978 266.283 298.819 266.304C298.434 266.354 298.074 266.436 297.739 266.549C297.409 266.658 297.141 266.823 296.936 267.045C296.735 267.262 296.635 267.56 296.635 267.936C296.635 268.451 296.825 268.84 297.206 269.104C297.591 269.363 298.078 269.493 298.668 269.493ZM309.758 260.956V262.212H304.762V260.956H309.758ZM306.218 258.646H307.7V267.836C307.7 268.254 307.76 268.568 307.882 268.777C308.007 268.982 308.166 269.12 308.359 269.192C308.555 269.259 308.762 269.292 308.98 269.292C309.143 269.292 309.277 269.284 309.382 269.267C309.486 269.246 309.57 269.229 309.633 269.217L309.934 270.547C309.834 270.585 309.694 270.623 309.514 270.66C309.334 270.702 309.106 270.723 308.829 270.723C308.411 270.723 308.001 270.633 307.599 270.453C307.202 270.273 306.871 269.999 306.607 269.631C306.348 269.263 306.218 268.798 306.218 268.237V258.646ZM314.824 270.824C314.213 270.824 313.659 270.709 313.161 270.478C312.663 270.244 312.267 269.907 311.974 269.468C311.681 269.024 311.535 268.489 311.535 267.861C311.535 267.308 311.644 266.861 311.861 266.518C312.079 266.17 312.37 265.898 312.734 265.702C313.098 265.505 313.499 265.358 313.939 265.262C314.382 265.162 314.828 265.082 315.276 265.024C315.862 264.948 316.337 264.892 316.701 264.854C317.069 264.812 317.337 264.743 317.504 264.647C317.676 264.551 317.762 264.383 317.762 264.145V264.095C317.762 263.475 317.592 262.994 317.253 262.651C316.918 262.308 316.41 262.136 315.728 262.136C315.021 262.136 314.466 262.291 314.064 262.601C313.663 262.91 313.38 263.241 313.217 263.592L311.811 263.09C312.062 262.504 312.397 262.048 312.815 261.722C313.238 261.391 313.698 261.161 314.196 261.031C314.698 260.898 315.192 260.831 315.678 260.831C315.987 260.831 316.343 260.868 316.745 260.944C317.151 261.015 317.542 261.163 317.919 261.389C318.299 261.615 318.615 261.956 318.866 262.412C319.117 262.869 319.243 263.479 319.243 264.245V270.598H317.762V269.292H317.686C317.586 269.501 317.418 269.725 317.184 269.964C316.95 270.202 316.638 270.405 316.249 270.573C315.86 270.74 315.385 270.824 314.824 270.824ZM315.05 269.493C315.636 269.493 316.13 269.378 316.531 269.148C316.937 268.917 317.243 268.62 317.448 268.256C317.657 267.892 317.762 267.509 317.762 267.108V265.752C317.699 265.827 317.561 265.896 317.347 265.959C317.138 266.017 316.895 266.07 316.619 266.116C316.347 266.158 316.081 266.195 315.822 266.229C315.567 266.258 315.36 266.283 315.201 266.304C314.816 266.354 314.456 266.436 314.121 266.549C313.79 266.658 313.523 266.823 313.317 267.045C313.117 267.262 313.016 267.56 313.016 267.936C313.016 268.451 313.207 268.84 313.587 269.104C313.972 269.363 314.46 269.493 315.05 269.493Z" fill="#6C6C6C"/>
</g>
<path d="M401.277 237.562C436.622 237.251 465.526 265.653 465.836 300.998L466.149 336.615L10.8747 340.611L10.5621 304.994C10.2519 269.649 38.6531 240.745 73.9979 240.434L401.277 237.562Z" fill="url(#paint3_linear_127_893)"/>
<g filter="url(#filter5_d_127_893)">
<path d="M58.019 214C35.635 214.903 21.8429 236.832 15.0664 252.317C12.2343 258.788 6.08008 263.454 -0.984066 263.454C-9.82942 263.454 -17 256.283 -17 247.438V43.9464C-17 37.3486 -11.6514 32 -5.05362 32C1.85693 32 7.48364 37.8494 7.46216 44.7599C7.4433 50.8248 7.50123 59.0766 7.7157 69.8002C8.78828 123.429 85.2671 128.842 138.902 128.158C234.465 126.939 354.398 124.871 405.987 123.957C422.433 123.666 438.197 117.303 449.562 105.413C457.735 96.8629 466.812 86.7876 472.48 78.722C475.832 73.951 481.146 70.3817 486.977 70.3817C494.806 70.3817 501.154 76.729 501.154 84.5587V276.538C501.154 283.925 495.165 289.914 487.778 289.914C480.391 289.914 474.403 283.927 474.403 276.54V264.069C474.403 261.731 474.145 259.385 473.258 257.222C470.566 250.65 465.492 244.394 459.566 238.786C438.377 218.731 407.958 213.947 378.783 213.862C286.555 213.593 80.3335 213.1 58.019 214Z" fill="url(#paint4_linear_127_893)"/>
</g>
<rect width="77.7533" height="455.292" transform="translate(465.728 268.672) rotate(89.4971)" fill="url(#paint5_linear_127_893)"/>
<rect width="86.1475" height="455.292" transform="translate(465.654 260.277) rotate(89.4971)" fill="url(#paint6_linear_127_893)"/>
<rect width="96.1908" height="455.292" transform="translate(465.566 250.234) rotate(89.4971)" fill="url(#paint7_linear_127_893)"/>
<rect width="94.9799" height="455.292" transform="translate(465.577 211.445) rotate(89.4971)" fill="url(#paint8_linear_127_893)"/>
<g filter="url(#filter6_d_127_893)">
<path d="M129.046 182V164.545H139.989V166.812H131.679V172.131H139.418V174.389H131.679V179.733H140.091V182H129.046ZM144.914 174.227V182H142.366V168.909H144.812V171.04H144.974C145.275 170.347 145.747 169.79 146.389 169.369C147.036 168.949 147.852 168.739 148.835 168.739C149.727 168.739 150.508 168.926 151.178 169.301C151.849 169.67 152.369 170.222 152.738 170.955C153.107 171.687 153.292 172.594 153.292 173.673V182H150.744V173.98C150.744 173.031 150.497 172.29 150.002 171.756C149.508 171.216 148.829 170.946 147.965 170.946C147.374 170.946 146.849 171.074 146.389 171.33C145.934 171.585 145.573 171.96 145.306 172.455C145.045 172.943 144.914 173.534 144.914 174.227ZM161.288 182.264C160.021 182.264 158.93 181.977 158.015 181.403C157.106 180.824 156.407 180.026 155.919 179.009C155.43 177.991 155.186 176.827 155.186 175.514C155.186 174.185 155.436 173.011 155.936 171.994C156.436 170.972 157.14 170.173 158.049 169.599C158.958 169.026 160.029 168.739 161.262 168.739C162.257 168.739 163.143 168.923 163.921 169.293C164.7 169.656 165.328 170.168 165.805 170.827C166.288 171.486 166.575 172.256 166.666 173.136H164.186C164.049 172.523 163.737 171.994 163.248 171.551C162.765 171.108 162.117 170.886 161.305 170.886C160.595 170.886 159.973 171.074 159.438 171.449C158.91 171.818 158.498 172.347 158.203 173.034C157.907 173.716 157.759 174.523 157.759 175.455C157.759 176.409 157.904 177.233 158.194 177.926C158.484 178.619 158.893 179.156 159.421 179.537C159.956 179.918 160.583 180.108 161.305 180.108C161.788 180.108 162.225 180.02 162.617 179.844C163.015 179.662 163.348 179.403 163.615 179.068C163.887 178.733 164.078 178.33 164.186 177.858H166.666C166.575 178.705 166.299 179.46 165.839 180.125C165.379 180.79 164.762 181.312 163.99 181.693C163.223 182.074 162.322 182.264 161.288 182.264ZM168.455 182V168.909H170.918V170.989H171.054C171.293 170.284 171.713 169.73 172.316 169.327C172.924 168.918 173.611 168.713 174.378 168.713C174.537 168.713 174.725 168.719 174.941 168.73C175.162 168.741 175.336 168.756 175.461 168.773V171.21C175.358 171.182 175.176 171.151 174.915 171.116C174.654 171.077 174.392 171.057 174.131 171.057C173.529 171.057 172.992 171.185 172.52 171.44C172.054 171.69 171.685 172.04 171.412 172.489C171.14 172.932 171.003 173.437 171.003 174.006V182H168.455ZM178.739 186.909C178.358 186.909 178.012 186.878 177.699 186.815C177.387 186.759 177.154 186.696 177 186.628L177.614 184.54C178.08 184.665 178.495 184.719 178.858 184.702C179.222 184.685 179.543 184.548 179.821 184.293C180.106 184.037 180.356 183.619 180.571 183.04L180.887 182.17L176.097 168.909H178.824L182.14 179.068H182.276L185.591 168.909H188.327L182.932 183.747C182.682 184.429 182.364 185.006 181.978 185.477C181.591 185.955 181.131 186.313 180.597 186.551C180.063 186.79 179.444 186.909 178.739 186.909ZM189.786 186.909V168.909H192.275V171.031H192.488C192.635 170.759 192.849 170.443 193.127 170.085C193.405 169.727 193.792 169.415 194.286 169.148C194.78 168.875 195.434 168.739 196.246 168.739C197.303 168.739 198.246 169.006 199.076 169.54C199.905 170.074 200.556 170.844 201.027 171.849C201.505 172.855 201.743 174.065 201.743 175.48C201.743 176.895 201.508 178.108 201.036 179.119C200.564 180.125 199.917 180.901 199.093 181.446C198.269 181.986 197.329 182.256 196.272 182.256C195.476 182.256 194.826 182.122 194.32 181.855C193.82 181.588 193.428 181.276 193.144 180.918C192.86 180.56 192.641 180.241 192.488 179.963H192.334V186.909H189.786ZM192.283 175.455C192.283 176.375 192.417 177.182 192.684 177.875C192.951 178.568 193.337 179.111 193.843 179.503C194.349 179.889 194.968 180.082 195.701 180.082C196.462 180.082 197.099 179.881 197.61 179.477C198.121 179.068 198.508 178.514 198.769 177.815C199.036 177.116 199.17 176.33 199.17 175.455C199.17 174.591 199.039 173.815 198.777 173.128C198.522 172.44 198.135 171.898 197.618 171.5C197.107 171.102 196.468 170.903 195.701 170.903C194.962 170.903 194.337 171.094 193.826 171.474C193.32 171.855 192.937 172.386 192.675 173.068C192.414 173.75 192.283 174.545 192.283 175.455ZM209.773 168.909V170.955H202.623V168.909H209.773ZM204.54 165.773H207.089V178.156C207.089 178.651 207.163 179.023 207.31 179.273C207.458 179.517 207.648 179.685 207.881 179.776C208.12 179.861 208.378 179.903 208.657 179.903C208.861 179.903 209.04 179.889 209.194 179.861C209.347 179.832 209.466 179.81 209.552 179.793L210.012 181.898C209.864 181.955 209.654 182.011 209.381 182.068C209.109 182.131 208.768 182.165 208.359 182.17C207.688 182.182 207.063 182.062 206.484 181.812C205.904 181.562 205.435 181.176 205.077 180.653C204.719 180.131 204.54 179.474 204.54 178.685V165.773ZM211.656 182V168.909H214.204V182H211.656ZM212.943 166.889C212.5 166.889 212.119 166.741 211.801 166.446C211.489 166.145 211.332 165.787 211.332 165.372C211.332 164.952 211.489 164.594 211.801 164.298C212.119 163.997 212.5 163.847 212.943 163.847C213.386 163.847 213.764 163.997 214.077 164.298C214.395 164.594 214.554 164.952 214.554 165.372C214.554 165.787 214.395 166.145 214.077 166.446C213.764 166.741 213.386 166.889 212.943 166.889ZM219.245 174.227V182H216.697V168.909H219.143V171.04H219.305C219.606 170.347 220.077 169.79 220.719 169.369C221.367 168.949 222.183 168.739 223.165 168.739C224.058 168.739 224.839 168.926 225.509 169.301C226.18 169.67 226.7 170.222 227.069 170.955C227.438 171.687 227.623 172.594 227.623 173.673V182H225.075V173.98C225.075 173.031 224.827 172.29 224.333 171.756C223.839 171.216 223.16 170.946 222.296 170.946C221.705 170.946 221.18 171.074 220.719 171.33C220.265 171.585 219.904 171.96 219.637 172.455C219.376 172.943 219.245 173.534 219.245 174.227ZM235.593 187.182C234.553 187.182 233.658 187.045 232.908 186.773C232.164 186.5 231.556 186.139 231.085 185.69C230.613 185.241 230.261 184.75 230.028 184.216L232.218 183.312C232.372 183.562 232.576 183.827 232.832 184.105C233.093 184.389 233.445 184.631 233.889 184.83C234.337 185.028 234.914 185.128 235.619 185.128C236.585 185.128 237.383 184.892 238.014 184.42C238.644 183.955 238.96 183.21 238.96 182.188V179.614H238.798C238.644 179.892 238.423 180.202 238.133 180.543C237.849 180.884 237.457 181.179 236.957 181.429C236.457 181.679 235.806 181.804 235.005 181.804C233.971 181.804 233.039 181.562 232.21 181.08C231.386 180.591 230.732 179.872 230.249 178.923C229.772 177.969 229.533 176.795 229.533 175.403C229.533 174.011 229.769 172.818 230.241 171.824C230.718 170.83 231.372 170.068 232.201 169.54C233.031 169.006 233.971 168.739 235.022 168.739C235.835 168.739 236.491 168.875 236.991 169.148C237.491 169.415 237.88 169.727 238.158 170.085C238.443 170.443 238.661 170.759 238.815 171.031H239.002V168.909H241.499V182.29C241.499 183.415 241.238 184.338 240.715 185.06C240.193 185.781 239.485 186.315 238.593 186.662C237.707 187.009 236.707 187.182 235.593 187.182ZM235.568 179.69C236.301 179.69 236.92 179.52 237.426 179.179C237.937 178.832 238.323 178.338 238.585 177.696C238.852 177.048 238.985 176.273 238.985 175.369C238.985 174.489 238.854 173.713 238.593 173.043C238.332 172.372 237.948 171.849 237.443 171.474C236.937 171.094 236.312 170.903 235.568 170.903C234.801 170.903 234.161 171.102 233.65 171.5C233.139 171.892 232.752 172.426 232.491 173.102C232.235 173.778 232.107 174.534 232.107 175.369C232.107 176.227 232.238 176.98 232.499 177.628C232.761 178.276 233.147 178.781 233.658 179.145C234.176 179.509 234.812 179.69 235.568 179.69ZM251.007 186.909C250.627 186.909 250.28 186.878 249.968 186.815C249.655 186.759 249.422 186.696 249.269 186.628L249.882 184.54C250.348 184.665 250.763 184.719 251.127 184.702C251.49 184.685 251.811 184.548 252.09 184.293C252.374 184.037 252.624 183.619 252.84 183.04L253.155 182.17L248.365 168.909H251.093L254.408 179.068H254.544L257.86 168.909H260.595L255.201 183.747C254.951 184.429 254.632 185.006 254.246 185.477C253.86 185.955 253.399 186.313 252.865 186.551C252.331 186.79 251.712 186.909 251.007 186.909ZM267.123 182.264C265.896 182.264 264.825 181.983 263.91 181.42C262.995 180.858 262.285 180.071 261.779 179.06C261.274 178.048 261.021 176.866 261.021 175.514C261.021 174.156 261.274 172.969 261.779 171.952C262.285 170.935 262.995 170.145 263.91 169.582C264.825 169.02 265.896 168.739 267.123 168.739C268.35 168.739 269.422 169.02 270.336 169.582C271.251 170.145 271.961 170.935 272.467 171.952C272.973 172.969 273.225 174.156 273.225 175.514C273.225 176.866 272.973 178.048 272.467 179.06C271.961 180.071 271.251 180.858 270.336 181.42C269.422 181.983 268.35 182.264 267.123 182.264ZM267.132 180.125C267.927 180.125 268.586 179.915 269.109 179.494C269.632 179.074 270.018 178.514 270.268 177.815C270.524 177.116 270.652 176.347 270.652 175.506C270.652 174.67 270.524 173.903 270.268 173.205C270.018 172.5 269.632 171.935 269.109 171.509C268.586 171.082 267.927 170.869 267.132 170.869C266.331 170.869 265.666 171.082 265.137 171.509C264.615 171.935 264.225 172.5 263.97 173.205C263.72 173.903 263.595 174.67 263.595 175.506C263.595 176.347 263.72 177.116 263.97 177.815C264.225 178.514 264.615 179.074 265.137 179.494C265.666 179.915 266.331 180.125 267.132 180.125ZM283.427 176.571V168.909H285.983V182H283.478V179.733H283.341C283.04 180.432 282.557 181.014 281.892 181.48C281.233 181.94 280.412 182.17 279.429 182.17C278.588 182.17 277.844 181.986 277.196 181.616C276.554 181.241 276.049 180.688 275.679 179.955C275.316 179.222 275.134 178.315 275.134 177.236V168.909H277.682V176.929C277.682 177.821 277.929 178.531 278.424 179.06C278.918 179.588 279.56 179.852 280.35 179.852C280.827 179.852 281.302 179.733 281.773 179.494C282.25 179.256 282.645 178.895 282.958 178.412C283.276 177.929 283.432 177.315 283.427 176.571ZM288.471 182V168.909H290.934V170.989H291.071C291.309 170.284 291.73 169.73 292.332 169.327C292.94 168.918 293.628 168.713 294.395 168.713C294.554 168.713 294.741 168.719 294.957 168.73C295.179 168.741 295.352 168.756 295.477 168.773V171.21C295.375 171.182 295.193 171.151 294.932 171.116C294.67 171.077 294.409 171.057 294.148 171.057C293.545 171.057 293.008 171.185 292.537 171.44C292.071 171.69 291.701 172.04 291.429 172.489C291.156 172.932 291.02 173.437 291.02 174.006V182H288.471ZM307.062 182.256C306.006 182.256 305.062 181.986 304.233 181.446C303.409 180.901 302.761 180.125 302.29 179.119C301.824 178.108 301.591 176.895 301.591 175.48C301.591 174.065 301.827 172.855 302.298 171.849C302.775 170.844 303.429 170.074 304.258 169.54C305.088 169.006 306.028 168.739 307.079 168.739C307.892 168.739 308.545 168.875 309.04 169.148C309.54 169.415 309.926 169.727 310.199 170.085C310.477 170.443 310.693 170.759 310.847 171.031H311V164.545H313.548V182H311.06V179.963H310.847C310.693 180.241 310.472 180.56 310.182 180.918C309.898 181.276 309.506 181.588 309.006 181.855C308.506 182.122 307.858 182.256 307.062 182.256ZM307.625 180.082C308.358 180.082 308.977 179.889 309.483 179.503C309.994 179.111 310.381 178.568 310.642 177.875C310.909 177.182 311.043 176.375 311.043 175.455C311.043 174.545 310.912 173.75 310.65 173.068C310.389 172.386 310.006 171.855 309.5 171.474C308.994 171.094 308.369 170.903 307.625 170.903C306.858 170.903 306.219 171.102 305.707 171.5C305.196 171.898 304.81 172.44 304.548 173.128C304.293 173.815 304.165 174.591 304.165 175.455C304.165 176.33 304.295 177.116 304.557 177.815C304.818 178.514 305.204 179.068 305.716 179.477C306.233 179.881 306.869 180.082 307.625 180.082ZM320.059 182.29C319.229 182.29 318.479 182.136 317.809 181.83C317.139 181.517 316.607 181.065 316.215 180.474C315.829 179.884 315.636 179.159 315.636 178.301C315.636 177.562 315.778 176.955 316.062 176.477C316.346 176 316.729 175.622 317.212 175.344C317.695 175.065 318.235 174.855 318.832 174.713C319.428 174.571 320.036 174.463 320.656 174.389C321.44 174.298 322.076 174.224 322.565 174.168C323.053 174.105 323.408 174.006 323.63 173.869C323.852 173.733 323.962 173.511 323.962 173.205V173.145C323.962 172.401 323.752 171.824 323.332 171.415C322.917 171.006 322.298 170.801 321.474 170.801C320.616 170.801 319.94 170.991 319.445 171.372C318.957 171.747 318.619 172.165 318.431 172.625L316.036 172.08C316.32 171.284 316.735 170.642 317.281 170.153C317.832 169.659 318.465 169.301 319.181 169.08C319.897 168.852 320.65 168.739 321.44 168.739C321.962 168.739 322.516 168.801 323.102 168.926C323.693 169.045 324.244 169.267 324.755 169.591C325.272 169.915 325.695 170.378 326.025 170.98C326.354 171.577 326.519 172.352 326.519 173.307V182H324.031V180.21H323.928C323.764 180.54 323.516 180.864 323.187 181.182C322.857 181.5 322.434 181.764 321.917 181.974C321.4 182.185 320.781 182.29 320.059 182.29ZM320.613 180.244C321.318 180.244 321.92 180.105 322.42 179.827C322.925 179.548 323.309 179.185 323.57 178.736C323.837 178.281 323.971 177.795 323.971 177.278V175.591C323.88 175.682 323.704 175.767 323.443 175.847C323.187 175.92 322.894 175.986 322.565 176.043C322.235 176.094 321.914 176.142 321.602 176.188C321.289 176.227 321.028 176.261 320.818 176.29C320.323 176.352 319.871 176.457 319.462 176.605C319.059 176.753 318.735 176.966 318.491 177.244C318.252 177.517 318.133 177.881 318.133 178.335C318.133 178.966 318.366 179.443 318.832 179.767C319.298 180.085 319.891 180.244 320.613 180.244ZM335.088 168.909V170.955H327.938V168.909H335.088ZM329.855 165.773H332.403V178.156C332.403 178.651 332.477 179.023 332.625 179.273C332.773 179.517 332.963 179.685 333.196 179.776C333.435 179.861 333.693 179.903 333.972 179.903C334.176 179.903 334.355 179.889 334.509 179.861C334.662 179.832 334.781 179.81 334.867 179.793L335.327 181.898C335.179 181.955 334.969 182.011 334.696 182.068C334.423 182.131 334.082 182.165 333.673 182.17C333.003 182.182 332.378 182.062 331.798 181.812C331.219 181.562 330.75 181.176 330.392 180.653C330.034 180.131 329.855 179.474 329.855 178.685V165.773ZM340.781 182.29C339.951 182.29 339.201 182.136 338.531 181.83C337.86 181.517 337.329 181.065 336.937 180.474C336.551 179.884 336.357 179.159 336.357 178.301C336.357 177.562 336.499 176.955 336.784 176.477C337.068 176 337.451 175.622 337.934 175.344C338.417 175.065 338.957 174.855 339.553 174.713C340.15 174.571 340.758 174.463 341.377 174.389C342.161 174.298 342.798 174.224 343.286 174.168C343.775 174.105 344.13 174.006 344.352 173.869C344.573 173.733 344.684 173.511 344.684 173.205V173.145C344.684 172.401 344.474 171.824 344.053 171.415C343.639 171.006 343.019 170.801 342.195 170.801C341.338 170.801 340.661 170.991 340.167 171.372C339.678 171.747 339.34 172.165 339.153 172.625L336.758 172.08C337.042 171.284 337.457 170.642 338.002 170.153C338.553 169.659 339.187 169.301 339.903 169.08C340.619 168.852 341.372 168.739 342.161 168.739C342.684 168.739 343.238 168.801 343.823 168.926C344.414 169.045 344.965 169.267 345.477 169.591C345.994 169.915 346.417 170.378 346.747 170.98C347.076 171.577 347.241 172.352 347.241 173.307V182H344.752V180.21H344.65C344.485 180.54 344.238 180.864 343.909 181.182C343.579 181.5 343.156 181.764 342.639 181.974C342.122 182.185 341.502 182.29 340.781 182.29ZM341.335 180.244C342.039 180.244 342.642 180.105 343.142 179.827C343.647 179.548 344.031 179.185 344.292 178.736C344.559 178.281 344.693 177.795 344.693 177.278V175.591C344.602 175.682 344.426 175.767 344.164 175.847C343.909 175.92 343.616 175.986 343.286 176.043C342.957 176.094 342.636 176.142 342.323 176.188C342.011 176.227 341.749 176.261 341.539 176.29C341.045 176.352 340.593 176.457 340.184 176.605C339.781 176.753 339.457 176.966 339.213 177.244C338.974 177.517 338.855 177.881 338.855 178.335C338.855 178.966 339.088 179.443 339.553 179.767C340.019 180.085 340.613 180.244 341.335 180.244Z" fill="white"/>
</g>
<path d="M364.938 156.609C362.529 156.377 360.623 154.472 360.391 152.064L360 148L359.609 152.064C359.377 154.472 357.471 156.377 355.062 156.609L351 157L355.062 157.391C357.471 157.623 359.377 159.528 359.609 161.936L360 166L360.391 161.936C360.623 159.528 362.529 157.623 364.938 157.391L369 157L364.938 156.609Z" fill="white"/>
</g>
<defs>
<filter id="filter0_d_127_893" x="0" y="0" width="488" height="371" filterUnits="userSpaceOnUse" color-interpolation-filters="sRGB">
<feFlood flood-opacity="0" result="BackgroundImageFix"/>
<feColorMatrix in="SourceAlpha" type="matrix" values="0 0 0 0 0 0 0 0 0 0 0 0 0 0 0 0 0 0 127 0" result="hardAlpha"/>
<feOffset dx="5" dy="5"/>
<feGaussianBlur stdDeviation="8"/>
<feComposite in2="hardAlpha" operator="out"/>
<feColorMatrix type="matrix" values="0 0 0 0 0 0 0 0 0 0 0 0 0 0 0 0 0 0 0.12 0"/>
<feBlend mode="normal" in2="BackgroundImageFix" result="effect1_dropShadow_127_893"/>
<feBlend mode="normal" in="SourceGraphic" in2="effect1_dropShadow_127_893" result="shape"/>
</filter>
<filter id="filter1_d_127_893" x="119" y="21" width="240" height="63.8867" filterUnits="userSpaceOnUse" color-interpolation-filters="sRGB">
<feFlood flood-opacity="0" result="BackgroundImageFix"/>
<feColorMatrix in="SourceAlpha" type="matrix" values="0 0 0 0 0 0 0 0 0 0 0 0 0 0 0 0 0 0 127 0" result="hardAlpha"/>
<feOffset dy="4"/>
<feGaussianBlur stdDeviation="2"/>
<feComposite in2="hardAlpha" operator="out"/>
<feColorMatrix type="matrix" values="0 0 0 0 0 0 0 0 0 0 0 0 0 0 0 0 0 0 0.25 0"/>
<feBlend mode="normal" in2="BackgroundImageFix" result="effect1_dropShadow_127_893"/>
<feBlend mode="normal" in="SourceGraphic" in2="effect1_dropShadow_127_893" result="shape"/>
</filter>
<filter id="filter2_d_127_893" x="119" y="92.8867" width="240" height="63.8867" filterUnits="userSpaceOnUse" color-interpolation-filters="sRGB">
<feFlood flood-opacity="0" result="BackgroundImageFix"/>
<feColorMatrix in="SourceAlpha" type="matrix" values="0 0 0 0 0 0 0 0 0 0 0 0 0 0 0 0 0 0 127 0" result="hardAlpha"/>
<feOffset dy="4"/>
<feGaussianBlur stdDeviation="2"/>
<feComposite in2="hardAlpha" operator="out"/>
<feColorMatrix type="matrix" values="0 0 0 0 0 0 0 0 0 0 0 0 0 0 0 0 0 0 0.25 0"/>
<feBlend mode="normal" in2="BackgroundImageFix" result="effect1_dropShadow_127_893"/>
<feBlend mode="normal" in="SourceGraphic" in2="effect1_dropShadow_127_893" result="shape"/>
</filter>
<filter id="filter3_d_127_893" x="119" y="164.77" width="240" height="63.8867" filterUnits="userSpaceOnUse" color-interpolation-filters="sRGB">
<feFlood flood-opacity="0" result="BackgroundImageFix"/>
<feColorMatrix in="SourceAlpha" type="matrix" values="0 0 0 0 0 0 0 0 0 0 0 0 0 0 0 0 0 0 127 0" result="hardAlpha"/>
<feOffset dy="4"/>
<feGaussianBlur stdDeviation="2"/>
<feComposite in2="hardAlpha" operator="out"/>
<feColorMatrix type="matrix" values="0 0 0 0 0 0 0 0 0 0 0 0 0 0 0 0 0 0 0.25 0"/>
<feBlend mode="normal" in2="BackgroundImageFix" result="effect1_dropShadow_127_893"/>
<feBlend mode="normal" in="SourceGraphic" in2="effect1_dropShadow_127_893" result="shape"/>
</filter>
<filter id="filter4_d_127_893" x="119" y="236.656" width="240" height="63.8867" filterUnits="userSpaceOnUse" color-interpolation-filters="sRGB">
<feFlood flood-opacity="0" result="BackgroundImageFix"/>
<feColorMatrix in="SourceAlpha" type="matrix" values="0 0 0 0 0 0 0 0 0 0 0 0 0 0 0 0 0 0 127 0" result="hardAlpha"/>
<feOffset dy="4"/>
<feGaussianBlur stdDeviation="2"/>
<feComposite in2="hardAlpha" operator="out"/>
<feColorMatrix type="matrix" values="0 0 0 0 0 0 0 0 0 0 0 0 0 0 0 0 0 0 0.25 0"/>
<feBlend mode="normal" in2="BackgroundImageFix" result="effect1_dropShadow_127_893"/>
<feBlend mode="normal" in="SourceGraphic" in2="effect1_dropShadow_127_893" result="shape"/>
</filter>
<filter id="filter5_d_127_893" x="-25" y="24" width="542.153" height="281.914" filterUnits="userSpaceOnUse" color-interpolation-filters="sRGB">
<feFlood flood-opacity="0" result="BackgroundImageFix"/>
<feColorMatrix in="SourceAlpha" type="matrix" values="0 0 0 0 0 0 0 0 0 0 0 0 0 0 0 0 0 0 127 0" result="hardAlpha"/>
<feOffset dx="4" dy="4"/>
<feGaussianBlur stdDeviation="6"/>
<feComposite in2="hardAlpha" operator="out"/>
<feColorMatrix type="matrix" values="0 0 0 0 0 0 0 0 0 0 0 0 0 0 0 0 0 0 0.25 0"/>
<feBlend mode="normal" in2="BackgroundImageFix" result="effect1_dropShadow_127_893"/>
<feBlend mode="normal" in="SourceGraphic" in2="effect1_dropShadow_127_893" result="shape"/>
</filter>
<filter id="filter6_d_127_893" x="125.046" y="163.848" width="226.195" height="31.3359" filterUnits="userSpaceOnUse" color-interpolation-filters="sRGB">
<feFlood flood-opacity="0" result="BackgroundImageFix"/>
<feColorMatrix in="SourceAlpha" type="matrix" values="0 0 0 0 0 0 0 0 0 0 0 0 0 0 0 0 0 0 127 0" result="hardAlpha"/>
<feOffset dy="4"/>
<feGaussianBlur stdDeviation="2"/>
<feComposite in2="hardAlpha" operator="out"/>
<feColorMatrix type="matrix" values="0 0 0 0 0 0 0 0 0 0 0 0 0 0 0 0 0 0 0.25 0"/>
<feBlend mode="normal" in2="BackgroundImageFix" result="effect1_dropShadow_127_893"/>
<feBlend mode="normal" in="SourceGraphic" in2="effect1_dropShadow_127_893" result="shape"/>
</filter>
<linearGradient id="paint0_linear_127_893" x1="239.074" y1="115.613" x2="239.074" y2="15.9947" gradientUnits="userSpaceOnUse">
<stop stop-color="white" stop-opacity="0"/>
<stop offset="1" stop-color="#FAFAFA"/>
</linearGradient>
<linearGradient id="paint1_linear_127_893" x1="239.074" y1="115.613" x2="239.074" y2="15.9947" gradientUnits="userSpaceOnUse">
<stop stop-color="white" stop-opacity="0"/>
<stop offset="1" stop-color="#FAFAFA"/>
</linearGradient>
<linearGradient id="paint2_linear_127_893" x1="239" y1="93" x2="239" y2="16" gradientUnits="userSpaceOnUse">
<stop stop-color="white" stop-opacity="0"/>
<stop offset="1" stop-color="#FAFAFA"/>
</linearGradient>
<linearGradient id="paint3_linear_127_893" x1="237.637" y1="238.998" x2="238.512" y2="338.613" gradientUnits="userSpaceOnUse">
<stop stop-color="white" stop-opacity="0"/>
<stop offset="1" stop-color="#FAFAFA"/>
</linearGradient>
<linearGradient id="paint4_linear_127_893" x1="242.077" y1="32" x2="242.077" y2="289.914" gradientUnits="userSpaceOnUse">
<stop stop-color="#005049"/>
<stop offset="0.558613" stop-color="#F1C361"/>
<stop offset="1" stop-color="#038479"/>
</linearGradient>
<linearGradient id="paint5_linear_127_893" x1="0" y1="227.646" x2="77.7533" y2="227.646" gradientUnits="userSpaceOnUse">
<stop stop-color="white" stop-opacity="0"/>
<stop offset="1" stop-color="#FAFAFA"/>
</linearGradient>
<linearGradient id="paint6_linear_127_893" x1="0" y1="227.646" x2="86.1475" y2="227.646" gradientUnits="userSpaceOnUse">
<stop stop-color="white" stop-opacity="0"/>
<stop offset="1" stop-color="#FAFAFA"/>
</linearGradient>
<linearGradient id="paint7_linear_127_893" x1="0" y1="227.646" x2="96.1908" y2="227.646" gradientUnits="userSpaceOnUse">
<stop stop-color="white" stop-opacity="0"/>
<stop offset="1" stop-color="#FAFAFA"/>
</linearGradient>
<linearGradient id="paint8_linear_127_893" x1="0" y1="227.646" x2="94.9799" y2="227.646" gradientUnits="userSpaceOnUse">
<stop stop-color="white" stop-opacity="0"/>
<stop offset="1" stop-color="#FAFAFA"/>
</linearGradient>
<clipPath id="clip0_127_893">
<rect width="456" height="339" fill="white" transform="translate(11 11)"/>
</clipPath>
</defs>
</svg>
