<svg width="456" height="283" viewBox="0 0 456 283" fill="none" xmlns="http://www.w3.org/2000/svg">
<g clip-path="url(#clip0_129_1112)">
<rect width="456" height="283" fill="white"/>
<g filter="url(#filter0_d_129_1112)">
<rect x="109" y="-1.54297" width="232" height="55.8857" rx="13.2571" fill="white"/>
<path fill-rule="evenodd" clip-rule="evenodd" d="M163.226 20.3984C163.226 18.8567 164.456 17.6629 165.984 16.8992C167.556 16.113 169.676 15.6484 171.976 15.6484C174.276 15.6484 176.396 16.113 177.968 16.8992C179.496 17.6629 180.726 18.8567 180.726 20.3984V32.3984C180.726 33.9401 179.496 35.134 177.968 35.8977C176.396 36.6838 174.276 37.1484 171.976 37.1484C169.676 37.1484 167.556 36.6838 165.984 35.8977C164.456 35.134 163.226 33.9401 163.226 32.3984V20.3984ZM164.726 20.3984C164.726 19.731 165.287 18.9248 166.655 18.2408C167.978 17.5793 169.858 17.1484 171.976 17.1484C174.094 17.1484 175.974 17.5793 177.298 18.2408C178.666 18.9248 179.226 19.731 179.226 20.3984C179.226 21.0659 178.666 21.8721 177.298 22.556C175.974 23.2176 174.094 23.6484 171.976 23.6484C169.858 23.6484 167.978 23.2176 166.655 22.556C165.287 21.8721 164.726 21.0659 164.726 20.3984ZM164.726 32.3984C164.726 33.0659 165.287 33.8721 166.655 34.556C167.978 35.2176 169.858 35.6484 171.976 35.6484C174.094 35.6484 175.974 35.2176 177.298 34.556C178.666 33.8721 179.226 33.0659 179.226 32.3984V29.1057C178.849 29.4062 178.422 29.6709 177.968 29.8977C176.396 30.6838 174.276 31.1484 171.976 31.1484C169.676 31.1484 167.556 30.6838 165.984 29.8977C165.53 29.6709 165.103 29.4062 164.726 29.1057V32.3984ZM179.226 23.1057V26.3984C179.226 27.0659 178.666 27.8721 177.298 28.556C175.974 29.2176 174.094 29.6484 171.976 29.6484C169.858 29.6484 167.978 29.2176 166.655 28.556C165.287 27.8721 164.726 27.0659 164.726 26.3984V23.1057C165.103 23.4062 165.53 23.6709 165.984 23.8977C167.556 24.6838 169.676 25.1484 171.976 25.1484C174.276 25.1484 176.396 24.6838 177.968 23.8977C178.422 23.6709 178.849 23.4062 179.226 23.1057Z" fill="#6C6C6C"/>
<path d="M200.957 32.3984H196.99V19.543H201.133C202.38 19.543 203.447 19.8004 204.334 20.3151C205.221 20.8256 205.901 21.5601 206.374 22.5184C206.847 23.4725 207.084 24.6149 207.084 25.9456C207.084 27.2847 206.845 28.4376 206.368 29.4043C205.891 30.3668 205.196 31.1075 204.284 31.6264C203.372 32.1411 202.263 32.3984 200.957 32.3984ZM198.547 31.0175H200.857C201.92 31.0175 202.801 30.8124 203.499 30.4023C204.198 29.9922 204.719 29.4085 205.062 28.651C205.406 27.8936 205.577 26.9918 205.577 25.9456C205.577 24.9078 205.408 24.0144 205.069 23.2653C204.73 22.5121 204.223 21.9346 203.55 21.5329C202.876 21.1269 202.037 20.924 201.033 20.924H198.547V31.0175ZM212.331 32.6244C211.72 32.6244 211.166 32.5093 210.668 32.2792C210.17 32.0448 209.774 31.708 209.482 31.2686C209.189 30.825 209.042 30.2893 209.042 29.6616C209.042 29.1093 209.151 28.6615 209.369 28.3184C209.586 27.971 209.877 27.699 210.241 27.5023C210.605 27.3057 211.007 27.1592 211.446 27.0629C211.89 26.9625 212.335 26.883 212.783 26.8244C213.369 26.7491 213.844 26.6926 214.208 26.6549C214.576 26.6131 214.844 26.544 215.012 26.4478C215.183 26.3515 215.269 26.1842 215.269 25.9456V25.8954C215.269 25.2761 215.099 24.7948 214.761 24.4517C214.426 24.1085 213.917 23.937 213.235 23.937C212.528 23.937 211.973 24.0918 211.572 24.4015C211.17 24.7111 210.888 25.0417 210.724 25.3932L209.318 24.8911C209.569 24.3052 209.904 23.8491 210.323 23.5227C210.745 23.1921 211.206 22.9619 211.704 22.8322C212.206 22.6983 212.7 22.6313 213.185 22.6313C213.495 22.6313 213.85 22.669 214.252 22.7443C214.658 22.8155 215.049 22.964 215.426 23.19C215.807 23.416 216.123 23.757 216.374 24.2132C216.625 24.6693 216.75 25.2803 216.75 26.0461V32.3984H215.269V31.0928H215.194C215.093 31.302 214.926 31.5259 214.691 31.7645C214.457 32.003 214.145 32.2059 213.756 32.3733C213.367 32.5407 212.892 32.6244 212.331 32.6244ZM212.557 31.2937C213.143 31.2937 213.637 31.1786 214.039 30.9484C214.445 30.7183 214.75 30.4212 214.955 30.0571C215.164 29.693 215.269 29.3101 215.269 28.9084V27.5525C215.206 27.6279 215.068 27.6969 214.855 27.7597C214.645 27.8183 214.403 27.8706 214.127 27.9166C213.855 27.9585 213.589 27.9961 213.329 28.0296C213.074 28.0589 212.867 28.084 212.708 28.1049C212.323 28.1551 211.963 28.2367 211.628 28.3497C211.298 28.4585 211.03 28.6238 210.825 28.8456C210.624 29.0632 210.523 29.3603 210.523 29.737C210.523 30.2517 210.714 30.6409 211.095 30.9045C211.48 31.1639 211.967 31.2937 212.557 31.2937ZM223.647 22.7569V24.0123H218.651V22.7569H223.647ZM220.107 20.4469H221.588V29.6365C221.588 30.055 221.649 30.3689 221.77 30.5781C221.896 30.7831 222.055 30.9212 222.247 30.9924C222.444 31.0593 222.651 31.0928 222.869 31.0928C223.032 31.0928 223.166 31.0844 223.271 31.0677C223.375 31.0468 223.459 31.03 223.522 31.0175L223.823 32.3482C223.723 32.3859 223.582 32.4235 223.402 32.4612C223.223 32.5031 222.994 32.524 222.718 32.524C222.3 32.524 221.89 32.434 221.488 32.2541C221.09 32.0741 220.76 31.8 220.496 31.4318C220.237 31.0635 220.107 30.599 220.107 30.0383V20.4469ZM228.713 32.6244C228.102 32.6244 227.547 32.5093 227.049 32.2792C226.551 32.0448 226.156 31.708 225.863 31.2686C225.57 30.825 225.424 30.2893 225.424 29.6616C225.424 29.1093 225.532 28.6615 225.75 28.3184C225.968 27.971 226.259 27.699 226.623 27.5023C226.987 27.3057 227.388 27.1592 227.828 27.0629C228.271 26.9625 228.717 26.883 229.165 26.8244C229.751 26.7491 230.226 26.6926 230.59 26.6549C230.958 26.6131 231.226 26.544 231.393 26.4478C231.565 26.3515 231.65 26.1842 231.65 25.9456V25.8954C231.65 25.2761 231.481 24.7948 231.142 24.4517C230.807 24.1085 230.299 23.937 229.617 23.937C228.91 23.937 228.355 24.0918 227.953 24.4015C227.552 24.7111 227.269 25.0417 227.106 25.3932L225.7 24.8911C225.951 24.3052 226.286 23.8491 226.704 23.5227C227.127 23.1921 227.587 22.9619 228.085 22.8322C228.587 22.6983 229.081 22.6313 229.567 22.6313C229.876 22.6313 230.232 22.669 230.634 22.7443C231.04 22.8155 231.431 22.964 231.807 23.19C232.188 23.416 232.504 23.757 232.755 24.2132C233.006 24.6693 233.132 25.2803 233.132 26.0461V32.3984H231.65V31.0928H231.575C231.475 31.302 231.307 31.5259 231.073 31.7645C230.839 32.003 230.527 32.2059 230.138 32.3733C229.749 32.5407 229.274 32.6244 228.713 32.6244ZM228.939 31.2937C229.525 31.2937 230.018 31.1786 230.42 30.9484C230.826 30.7183 231.132 30.4212 231.337 30.0571C231.546 29.693 231.65 29.3101 231.65 28.9084V27.5525C231.588 27.6279 231.45 27.6969 231.236 27.7597C231.027 27.8183 230.784 27.8706 230.508 27.9166C230.236 27.9585 229.97 27.9961 229.711 28.0296C229.456 28.0589 229.248 28.084 229.089 28.1049C228.704 28.1551 228.345 28.2367 228.01 28.3497C227.679 28.4585 227.411 28.6238 227.206 28.8456C227.005 29.0632 226.905 29.3603 226.905 29.737C226.905 30.2517 227.095 30.6409 227.476 30.9045C227.861 31.1639 228.349 31.2937 228.939 31.2937ZM242.565 19.543V32.3984H241.008V19.543H242.565ZM246.967 26.5984V32.3984H245.485V22.7569H246.916V24.2634H247.042C247.268 23.7738 247.611 23.3804 248.071 23.0833C248.532 22.782 249.126 22.6313 249.854 22.6313C250.507 22.6313 251.078 22.7652 251.568 23.0331C252.057 23.2967 252.438 23.6984 252.71 24.2383C252.982 24.7739 253.118 25.4518 253.118 26.272V32.3984H251.637V26.3725C251.637 25.615 251.44 25.025 251.047 24.6023C250.653 24.1755 250.113 23.9621 249.427 23.9621C248.954 23.9621 248.532 24.0646 248.159 24.2696C247.791 24.4747 247.5 24.7739 247.287 25.1673C247.073 25.5606 246.967 26.0377 246.967 26.5984ZM260.119 22.7569V24.0123H254.921V22.7569H260.119ZM256.478 32.3984V21.4261C256.478 20.8738 256.608 20.4134 256.867 20.0452C257.126 19.6769 257.463 19.4007 257.878 19.2166C258.292 19.0325 258.729 18.9404 259.19 18.9404C259.554 18.9404 259.851 18.9697 260.081 19.0283C260.311 19.0869 260.483 19.1413 260.596 19.1915L260.169 20.472C260.093 20.4469 259.989 20.4155 259.855 20.3779C259.725 20.3402 259.554 20.3214 259.34 20.3214C258.851 20.3214 258.497 20.4448 258.279 20.6917C258.066 20.9386 257.959 21.3006 257.959 21.7777V32.3984H256.478ZM263.676 19.543V32.3984H262.195V19.543H263.676ZM270.306 32.5993C269.436 32.5993 268.672 32.3922 268.015 31.9779C267.362 31.5636 266.852 30.984 266.483 30.2391C266.119 29.4943 265.937 28.6238 265.937 27.6279C265.937 26.6235 266.119 25.7468 266.483 24.9978C266.852 24.2487 267.362 23.6671 268.015 23.2528C268.672 22.8385 269.436 22.6313 270.306 22.6313C271.177 22.6313 271.938 22.8385 272.591 23.2528C273.248 23.6671 273.759 24.2487 274.123 24.9978C274.491 25.7468 274.675 26.6235 274.675 27.6279C274.675 28.6238 274.491 29.4943 274.123 30.2391C273.759 30.984 273.248 31.5636 272.591 31.9779C271.938 32.3922 271.177 32.5993 270.306 32.5993ZM270.306 31.2686C270.967 31.2686 271.511 31.0991 271.938 30.7601C272.365 30.4212 272.681 29.9755 272.886 29.4231C273.091 28.8707 273.194 28.2723 273.194 27.6279C273.194 26.9834 273.091 26.3829 272.886 25.8264C272.681 25.2698 272.365 24.8199 271.938 24.4768C271.511 24.1336 270.967 23.9621 270.306 23.9621C269.645 23.9621 269.101 24.1336 268.674 24.4768C268.247 24.8199 267.931 25.2698 267.726 25.8264C267.521 26.3829 267.419 26.9834 267.419 27.6279C267.419 28.2723 267.521 28.8707 267.726 29.4231C267.931 29.9755 268.247 30.4212 268.674 30.7601C269.101 31.0991 269.645 31.2686 270.306 31.2686ZM278.793 32.3984L275.855 22.7569H277.412L279.496 30.1387H279.596L281.655 22.7569H283.237L285.271 30.1136H285.371L287.455 22.7569H289.012L286.074 32.3984H284.618L282.509 24.9915H282.358L280.249 32.3984H278.793Z" fill="#6C6C6C"/>
</g>
<g filter="url(#filter1_d_129_1112)">
<rect x="109" y="70.3438" width="232" height="55.8857" rx="13.2571" fill="white"/>
<path fill-rule="evenodd" clip-rule="evenodd" d="M163.226 92.2852C163.226 90.7435 164.456 89.5496 165.984 88.7859C167.556 87.9998 169.676 87.5352 171.976 87.5352C174.276 87.5352 176.396 87.9998 177.968 88.7859C179.496 89.5496 180.726 90.7435 180.726 92.2852V104.285C180.726 105.827 179.496 107.021 177.968 107.784C176.396 108.571 174.276 109.035 171.976 109.035C169.676 109.035 167.556 108.571 165.984 107.784C164.456 107.021 163.226 105.827 163.226 104.285V92.2852ZM164.726 92.2852C164.726 91.6177 165.287 90.8115 166.655 90.1275C167.978 89.466 169.858 89.0352 171.976 89.0352C174.094 89.0352 175.974 89.466 177.298 90.1275C178.666 90.8115 179.226 91.6177 179.226 92.2852C179.226 92.9526 178.666 93.7588 177.298 94.4428C175.974 95.1043 174.094 95.5352 171.976 95.5352C169.858 95.5352 167.978 95.1043 166.655 94.4428C165.287 93.7588 164.726 92.9526 164.726 92.2852ZM164.726 104.285C164.726 104.953 165.287 105.759 166.655 106.443C167.978 107.104 169.858 107.535 171.976 107.535C174.094 107.535 175.974 107.104 177.298 106.443C178.666 105.759 179.226 104.953 179.226 104.285V100.992C178.849 101.293 178.422 101.558 177.968 101.784C176.396 102.571 174.276 103.035 171.976 103.035C169.676 103.035 167.556 102.571 165.984 101.784C165.53 101.558 165.103 101.293 164.726 100.992V104.285ZM179.226 94.9924V98.2852C179.226 98.9526 178.666 99.7588 177.298 100.443C175.974 101.104 174.094 101.535 171.976 101.535C169.858 101.535 167.978 101.104 166.655 100.443C165.287 99.7588 164.726 98.9526 164.726 98.2852V94.9924C165.103 95.2929 165.53 95.5576 165.984 95.7844C167.556 96.5706 169.676 97.0352 171.976 97.0352C174.276 97.0352 176.396 96.5706 177.968 95.7844C178.422 95.5576 178.849 95.2929 179.226 94.9924Z" fill="#6C6C6C"/>
<path d="M200.957 104.285H196.99V91.4297H201.133C202.38 91.4297 203.447 91.6871 204.334 92.2018C205.221 92.7124 205.901 93.4468 206.374 94.4051C206.847 95.3592 207.084 96.5016 207.084 97.8323C207.084 99.1714 206.845 100.324 206.368 101.291C205.891 102.253 205.196 102.994 204.284 103.513C203.372 104.028 202.263 104.285 200.957 104.285ZM198.547 102.904H200.857C201.92 102.904 202.801 102.699 203.499 102.289C204.198 101.879 204.719 101.295 205.062 100.538C205.406 99.7803 205.577 98.8785 205.577 97.8323C205.577 96.7945 205.408 95.9011 205.069 95.152C204.73 94.3988 204.223 93.8213 203.55 93.4196C202.876 93.0137 202.037 92.8107 201.033 92.8107H198.547V102.904ZM212.331 104.511C211.72 104.511 211.166 104.396 210.668 104.166C210.17 103.932 209.774 103.595 209.482 103.155C209.189 102.712 209.042 102.176 209.042 101.548C209.042 100.996 209.151 100.548 209.369 100.205C209.586 99.8577 209.877 99.5857 210.241 99.3891C210.605 99.1924 211.007 99.0459 211.446 98.9497C211.89 98.8492 212.335 98.7697 212.783 98.7111C213.369 98.6358 213.844 98.5793 214.208 98.5416C214.576 98.4998 214.844 98.4308 215.012 98.3345C215.183 98.2383 215.269 98.0709 215.269 97.8323V97.7821C215.269 97.1628 215.099 96.6815 214.761 96.3384C214.426 95.9953 213.917 95.8237 213.235 95.8237C212.528 95.8237 211.973 95.9785 211.572 96.2882C211.17 96.5979 210.888 96.9284 210.724 97.28L209.318 96.7778C209.569 96.1919 209.904 95.7358 210.323 95.4094C210.745 95.0788 211.206 94.8486 211.704 94.7189C212.206 94.585 212.7 94.5181 213.185 94.5181C213.495 94.5181 213.85 94.5557 214.252 94.631C214.658 94.7022 215.049 94.8507 215.426 95.0767C215.807 95.3027 216.123 95.6437 216.374 96.0999C216.625 96.556 216.75 97.167 216.75 97.9328V104.285H215.269V102.98H215.194C215.093 103.189 214.926 103.413 214.691 103.651C214.457 103.89 214.145 104.093 213.756 104.26C213.367 104.427 212.892 104.511 212.331 104.511ZM212.557 103.18C213.143 103.18 213.637 103.065 214.039 102.835C214.445 102.605 214.75 102.308 214.955 101.944C215.164 101.58 215.269 101.197 215.269 100.795V99.4393C215.206 99.5146 215.068 99.5836 214.855 99.6464C214.645 99.705 214.403 99.7573 214.127 99.8033C213.855 99.8452 213.589 99.8828 213.329 99.9163C213.074 99.9456 212.867 99.9707 212.708 99.9916C212.323 100.042 211.963 100.123 211.628 100.236C211.298 100.345 211.03 100.511 210.825 100.732C210.624 100.95 210.523 101.247 210.523 101.624C210.523 102.138 210.714 102.528 211.095 102.791C211.48 103.051 211.967 103.18 212.557 103.18ZM223.647 94.6436V95.899H218.651V94.6436H223.647ZM220.107 92.3336H221.588V101.523C221.588 101.942 221.649 102.256 221.77 102.465C221.896 102.67 222.055 102.808 222.247 102.879C222.444 102.946 222.651 102.98 222.869 102.98C223.032 102.98 223.166 102.971 223.271 102.954C223.375 102.933 223.459 102.917 223.522 102.904L223.823 104.235C223.723 104.273 223.582 104.31 223.402 104.348C223.223 104.39 222.994 104.411 222.718 104.411C222.3 104.411 221.89 104.321 221.488 104.141C221.09 103.961 220.76 103.687 220.496 103.318C220.237 102.95 220.107 102.486 220.107 101.925V92.3336ZM228.713 104.511C228.102 104.511 227.547 104.396 227.049 104.166C226.551 103.932 226.156 103.595 225.863 103.155C225.57 102.712 225.424 102.176 225.424 101.548C225.424 100.996 225.532 100.548 225.75 100.205C225.968 99.8577 226.259 99.5857 226.623 99.3891C226.987 99.1924 227.388 99.0459 227.828 98.9497C228.271 98.8492 228.717 98.7697 229.165 98.7111C229.751 98.6358 230.226 98.5793 230.59 98.5416C230.958 98.4998 231.226 98.4308 231.393 98.3345C231.565 98.2383 231.65 98.0709 231.65 97.8323V97.7821C231.65 97.1628 231.481 96.6815 231.142 96.3384C230.807 95.9953 230.299 95.8237 229.617 95.8237C228.91 95.8237 228.355 95.9785 227.953 96.2882C227.552 96.5979 227.269 96.9284 227.106 97.28L225.7 96.7778C225.951 96.1919 226.286 95.7358 226.704 95.4094C227.127 95.0788 227.587 94.8486 228.085 94.7189C228.587 94.585 229.081 94.5181 229.567 94.5181C229.876 94.5181 230.232 94.5557 230.634 94.631C231.04 94.7022 231.431 94.8507 231.807 95.0767C232.188 95.3027 232.504 95.6437 232.755 96.0999C233.006 96.556 233.132 97.167 233.132 97.9328V104.285H231.65V102.98H231.575C231.475 103.189 231.307 103.413 231.073 103.651C230.839 103.89 230.527 104.093 230.138 104.26C229.749 104.427 229.274 104.511 228.713 104.511ZM228.939 103.18C229.525 103.18 230.018 103.065 230.42 102.835C230.826 102.605 231.132 102.308 231.337 101.944C231.546 101.58 231.65 101.197 231.65 100.795V99.4393C231.588 99.5146 231.45 99.5836 231.236 99.6464C231.027 99.705 230.784 99.7573 230.508 99.8033C230.236 99.8452 229.97 99.8828 229.711 99.9163C229.456 99.9456 229.248 99.9707 229.089 99.9916C228.704 100.042 228.345 100.123 228.01 100.236C227.679 100.345 227.411 100.511 227.206 100.732C227.005 100.95 226.905 101.247 226.905 101.624C226.905 102.138 227.095 102.528 227.476 102.791C227.861 103.051 228.349 103.18 228.939 103.18ZM242.565 91.4297V104.285H241.008V91.4297H242.565ZM246.967 98.4852V104.285H245.485V94.6436H246.916V96.1501H247.042C247.268 95.6605 247.611 95.2671 248.071 94.97C248.532 94.6687 249.126 94.5181 249.854 94.5181C250.507 94.5181 251.078 94.652 251.568 94.9198C252.057 95.1834 252.438 95.5852 252.71 96.125C252.982 96.6606 253.118 97.3385 253.118 98.1587V104.285H251.637V98.2592C251.637 97.5018 251.44 96.9117 251.047 96.4891C250.653 96.0622 250.113 95.8488 249.427 95.8488C248.954 95.8488 248.532 95.9513 248.159 96.1564C247.791 96.3614 247.5 96.6606 247.287 97.054C247.073 97.4473 246.967 97.9244 246.967 98.4852ZM260.119 94.6436V95.899H254.921V94.6436H260.119ZM256.478 104.285V93.3129C256.478 92.7605 256.608 92.3002 256.867 91.9319C257.126 91.5637 257.463 91.2875 257.878 91.1033C258.292 90.9192 258.729 90.8271 259.19 90.8271C259.554 90.8271 259.851 90.8564 260.081 90.915C260.311 90.9736 260.483 91.028 260.596 91.0782L260.169 92.3587C260.093 92.3336 259.989 92.3023 259.855 92.2646C259.725 92.2269 259.554 92.2081 259.34 92.2081C258.851 92.2081 258.497 92.3315 258.279 92.5784C258.066 92.8253 257.959 93.1873 257.959 93.6644V104.285H256.478ZM263.676 91.4297V104.285H262.195V91.4297H263.676ZM270.306 104.486C269.436 104.486 268.672 104.279 268.015 103.865C267.362 103.45 266.852 102.871 266.483 102.126C266.119 101.381 265.937 100.511 265.937 99.5146C265.937 98.5103 266.119 97.6336 266.483 96.8845C266.852 96.1354 267.362 95.5538 268.015 95.1395C268.672 94.7252 269.436 94.5181 270.306 94.5181C271.177 94.5181 271.938 94.7252 272.591 95.1395C273.248 95.5538 273.759 96.1354 274.123 96.8845C274.491 97.6336 274.675 98.5103 274.675 99.5146C274.675 100.511 274.491 101.381 274.123 102.126C273.759 102.871 273.248 103.45 272.591 103.865C271.938 104.279 271.177 104.486 270.306 104.486ZM270.306 103.155C270.967 103.155 271.511 102.986 271.938 102.647C272.365 102.308 272.681 101.862 272.886 101.31C273.091 100.757 273.194 100.159 273.194 99.5146C273.194 98.8701 273.091 98.2696 272.886 97.7131C272.681 97.1565 272.365 96.7067 271.938 96.3635C271.511 96.0204 270.967 95.8488 270.306 95.8488C269.645 95.8488 269.101 96.0204 268.674 96.3635C268.247 96.7067 267.931 97.1565 267.726 97.7131C267.521 98.2696 267.419 98.8701 267.419 99.5146C267.419 100.159 267.521 100.757 267.726 101.31C267.931 101.862 268.247 102.308 268.674 102.647C269.101 102.986 269.645 103.155 270.306 103.155ZM278.793 104.285L275.855 94.6436H277.412L279.496 102.025H279.596L281.655 94.6436H283.237L285.271 102H285.371L287.455 94.6436H289.012L286.074 104.285H284.618L282.509 96.8782H282.358L280.249 104.285H278.793Z" fill="#6C6C6C"/>
</g>
<g filter="url(#filter2_d_129_1112)">
<rect x="109" y="142.227" width="232" height="55.8857" rx="13.2571" fill="white"/>
<path fill-rule="evenodd" clip-rule="evenodd" d="M136.04 162.161C133.002 162.161 130.556 164.592 130.556 167.571C130.556 168.082 130.628 168.575 130.761 169.042C131.31 169.2 131.824 169.44 132.289 169.748C132.671 170 132.775 170.514 132.523 170.896C132.27 171.277 131.756 171.382 131.375 171.13C130.954 170.851 130.476 170.652 129.961 170.552C129.716 170.504 129.462 170.479 129.201 170.479C127.035 170.479 125.295 172.212 125.295 174.33C125.295 176.447 127.035 178.18 129.201 178.18H140.249C143.287 178.18 145.733 175.749 145.733 172.77C145.733 170.409 144.199 168.393 142.046 167.657C141.484 167.465 140.88 167.36 140.249 167.36C139.605 167.36 138.989 167.469 138.418 167.669C137.986 167.819 137.513 167.592 137.363 167.16C137.212 166.728 137.44 166.255 137.872 166.104C138.616 165.844 139.417 165.703 140.249 165.703C140.575 165.703 140.897 165.725 141.212 165.767C140.46 163.67 138.433 162.161 136.04 162.161ZM143.061 166.272C142.444 162.983 139.529 160.504 136.04 160.504C132.106 160.504 128.899 163.659 128.899 167.571C128.899 167.999 128.937 168.418 129.011 168.825C126.035 168.924 123.638 171.342 123.638 174.33C123.638 177.381 126.138 179.837 129.201 179.837H140.249C144.184 179.837 147.391 176.682 147.391 172.77C147.391 169.849 145.602 167.351 143.061 166.272Z" fill="#1F1F1F"/>
<path d="M161.808 176.168V163.313H169.566V164.694H163.365V169.037H169.165V170.418H163.365V174.787H169.667V176.168H161.808ZM173.653 170.368V176.168H172.171V166.526H173.603V168.033H173.728C173.954 167.543 174.297 167.15 174.758 166.853C175.218 166.552 175.812 166.401 176.54 166.401C177.193 166.401 177.764 166.535 178.254 166.803C178.743 167.066 179.124 167.468 179.396 168.008C179.668 168.543 179.804 169.221 179.804 170.042V176.168H178.323V170.142C178.323 169.385 178.126 168.795 177.733 168.372C177.34 167.945 176.8 167.732 176.113 167.732C175.641 167.732 175.218 167.834 174.845 168.039C174.477 168.244 174.186 168.543 173.973 168.937C173.76 169.33 173.653 169.807 173.653 170.368ZM186.428 176.369C185.524 176.369 184.746 176.155 184.093 175.729C183.44 175.302 182.938 174.714 182.587 173.965C182.235 173.216 182.059 172.36 182.059 171.397C182.059 170.418 182.239 169.554 182.599 168.805C182.963 168.052 183.47 167.464 184.118 167.041C184.771 166.614 185.533 166.401 186.403 166.401C187.081 166.401 187.692 166.526 188.236 166.777C188.78 167.029 189.226 167.38 189.573 167.832C189.92 168.284 190.136 168.811 190.22 169.414H188.738C188.625 168.974 188.374 168.585 187.985 168.246C187.6 167.903 187.081 167.732 186.428 167.732C185.851 167.732 185.344 167.882 184.909 168.184C184.478 168.481 184.141 168.901 183.899 169.445C183.66 169.985 183.541 170.619 183.541 171.347C183.541 172.092 183.658 172.741 183.892 173.293C184.131 173.845 184.466 174.274 184.897 174.58C185.332 174.885 185.842 175.038 186.428 175.038C186.813 175.038 187.163 174.971 187.476 174.837C187.79 174.703 188.056 174.511 188.274 174.26C188.491 174.009 188.646 173.707 188.738 173.356H190.22C190.136 173.925 189.929 174.438 189.598 174.894C189.272 175.346 188.839 175.706 188.299 175.973C187.763 176.237 187.14 176.369 186.428 176.369ZM192.385 176.168V166.526H193.816V167.983H193.917C194.092 167.506 194.411 167.119 194.871 166.821C195.331 166.524 195.85 166.376 196.428 166.376C196.536 166.376 196.672 166.378 196.836 166.382C196.999 166.386 197.122 166.392 197.206 166.401V167.907C197.156 167.895 197.041 167.876 196.861 167.851C196.685 167.822 196.499 167.807 196.302 167.807C195.833 167.807 195.415 167.905 195.047 168.102C194.683 168.294 194.394 168.562 194.18 168.905C193.971 169.244 193.866 169.631 193.866 170.067V176.168H192.385ZM200.209 179.784C199.958 179.784 199.734 179.763 199.538 179.721C199.341 179.683 199.205 179.645 199.13 179.608L199.506 178.302C199.866 178.394 200.184 178.428 200.461 178.403C200.737 178.377 200.982 178.254 201.195 178.032C201.413 177.815 201.611 177.461 201.791 176.971L202.067 176.218L198.502 166.526H200.109L202.771 174.21H202.871L205.532 166.526H207.139L203.047 177.574C202.863 178.072 202.634 178.484 202.362 178.811C202.09 179.141 201.775 179.386 201.415 179.545C201.059 179.704 200.657 179.784 200.209 179.784ZM209.095 179.784V166.526H210.526V168.058H210.702C210.81 167.891 210.961 167.677 211.154 167.418C211.35 167.154 211.631 166.92 211.995 166.715C212.363 166.505 212.861 166.401 213.489 166.401C214.3 166.401 215.016 166.604 215.635 167.01C216.255 167.416 216.738 167.991 217.085 168.736C217.433 169.481 217.606 170.36 217.606 171.372C217.606 172.393 217.433 173.278 217.085 174.027C216.738 174.772 216.257 175.35 215.642 175.76C215.026 176.166 214.317 176.369 213.514 176.369C212.894 176.369 212.398 176.266 212.026 176.061C211.654 175.852 211.367 175.616 211.166 175.352C210.965 175.084 210.81 174.862 210.702 174.687H210.576V179.784H209.095ZM210.551 171.347C210.551 172.075 210.658 172.718 210.871 173.274C211.084 173.827 211.396 174.26 211.806 174.574C212.216 174.883 212.719 175.038 213.313 175.038C213.932 175.038 214.449 174.875 214.863 174.548C215.282 174.218 215.596 173.774 215.805 173.218C216.018 172.657 216.125 172.033 216.125 171.347C216.125 170.669 216.02 170.058 215.811 169.514C215.606 168.966 215.294 168.533 214.876 168.215C214.462 167.893 213.941 167.732 213.313 167.732C212.71 167.732 212.204 167.884 211.794 168.19C211.384 168.491 211.074 168.914 210.865 169.458C210.656 169.998 210.551 170.627 210.551 171.347ZM224.059 166.526V167.782H219.063V166.526H224.059ZM220.519 164.216H222V173.406C222 173.825 222.061 174.138 222.182 174.348C222.308 174.553 222.467 174.691 222.659 174.762C222.856 174.829 223.063 174.862 223.281 174.862C223.444 174.862 223.578 174.854 223.683 174.837C223.787 174.816 223.871 174.8 223.934 174.787L224.235 176.118C224.134 176.155 223.994 176.193 223.814 176.231C223.634 176.273 223.406 176.294 223.13 176.294C222.712 176.294 222.302 176.204 221.9 176.024C221.502 175.844 221.172 175.57 220.908 175.201C220.649 174.833 220.519 174.369 220.519 173.808V164.216ZM230.226 176.369C229.297 176.369 228.496 176.164 227.822 175.754C227.153 175.339 226.636 174.762 226.272 174.021C225.912 173.276 225.732 172.41 225.732 171.423C225.732 170.435 225.912 169.565 226.272 168.811C226.636 168.054 227.142 167.464 227.791 167.041C228.444 166.614 229.205 166.401 230.076 166.401C230.578 166.401 231.074 166.485 231.563 166.652C232.053 166.819 232.499 167.091 232.9 167.468C233.302 167.84 233.622 168.334 233.861 168.949C234.099 169.565 234.219 170.322 234.219 171.222V171.849H226.787V170.569H232.712C232.712 170.025 232.603 169.539 232.386 169.113C232.172 168.686 231.867 168.349 231.469 168.102C231.076 167.855 230.611 167.732 230.076 167.732C229.486 167.732 228.975 167.878 228.544 168.171C228.117 168.46 227.789 168.836 227.559 169.301C227.328 169.765 227.213 170.263 227.213 170.795V171.648C227.213 172.377 227.339 172.994 227.59 173.5C227.845 174.002 228.199 174.385 228.651 174.649C229.103 174.908 229.628 175.038 230.226 175.038C230.616 175.038 230.967 174.984 231.281 174.875C231.599 174.762 231.873 174.595 232.103 174.373C232.333 174.147 232.511 173.866 232.637 173.532L234.068 173.933C233.917 174.419 233.664 174.846 233.308 175.214C232.953 175.578 232.513 175.862 231.99 176.068C231.467 176.268 230.879 176.369 230.226 176.369ZM240.113 176.369C239.309 176.369 238.6 176.166 237.985 175.76C237.37 175.35 236.888 174.772 236.541 174.027C236.194 173.278 236.02 172.393 236.02 171.372C236.02 170.36 236.194 169.481 236.541 168.736C236.888 167.991 237.372 167.416 237.991 167.01C238.61 166.604 239.326 166.401 240.138 166.401C240.766 166.401 241.261 166.505 241.625 166.715C241.994 166.92 242.274 167.154 242.467 167.418C242.663 167.677 242.816 167.891 242.925 168.058H243.05V163.313H244.532V176.168H243.101V174.687H242.925C242.816 174.862 242.661 175.084 242.46 175.352C242.259 175.616 241.973 175.852 241.6 176.061C241.228 176.266 240.732 176.369 240.113 176.369ZM240.314 175.038C240.908 175.038 241.41 174.883 241.82 174.574C242.23 174.26 242.542 173.827 242.755 173.274C242.969 172.718 243.075 172.075 243.075 171.347C243.075 170.627 242.971 169.998 242.762 169.458C242.552 168.914 242.243 168.491 241.833 168.19C241.423 167.884 240.916 167.732 240.314 167.732C239.686 167.732 239.163 167.893 238.744 168.215C238.33 168.533 238.018 168.966 237.809 169.514C237.604 170.058 237.501 170.669 237.501 171.347C237.501 172.033 237.606 172.657 237.815 173.218C238.029 173.774 238.343 174.218 238.757 174.548C239.175 174.875 239.694 175.038 240.314 175.038ZM256.063 176.369C255.259 176.369 254.55 176.166 253.935 175.76C253.32 175.35 252.838 174.772 252.491 174.027C252.144 173.278 251.97 172.393 251.97 171.372C251.97 170.36 252.144 169.481 252.491 168.736C252.838 167.991 253.322 167.416 253.941 167.01C254.56 166.604 255.276 166.401 256.088 166.401C256.716 166.401 257.211 166.505 257.575 166.715C257.944 166.92 258.224 167.154 258.417 167.418C258.613 167.677 258.766 167.891 258.875 168.058H259V163.313H260.482V176.168H259.051V174.687H258.875C258.766 174.862 258.611 175.084 258.41 175.352C258.209 175.616 257.923 175.852 257.55 176.061C257.178 176.266 256.682 176.369 256.063 176.369ZM256.264 175.038C256.858 175.038 257.36 174.883 257.77 174.574C258.18 174.26 258.492 173.827 258.705 173.274C258.919 172.718 259.025 172.075 259.025 171.347C259.025 170.627 258.921 169.998 258.712 169.458C258.502 168.914 258.193 168.491 257.783 168.19C257.373 167.884 256.866 167.732 256.264 167.732C255.636 167.732 255.113 167.893 254.694 168.215C254.28 168.533 253.968 168.966 253.759 169.514C253.554 170.058 253.451 170.669 253.451 171.347C253.451 172.033 253.556 172.657 253.765 173.218C253.979 173.774 254.293 174.218 254.707 174.548C255.125 174.875 255.644 175.038 256.264 175.038ZM266.238 176.394C265.627 176.394 265.072 176.279 264.574 176.049C264.076 175.814 263.681 175.477 263.388 175.038C263.095 174.595 262.949 174.059 262.949 173.431C262.949 172.879 263.057 172.431 263.275 172.088C263.493 171.741 263.783 171.469 264.148 171.272C264.512 171.075 264.913 170.929 265.353 170.832C265.796 170.732 266.242 170.653 266.69 170.594C267.276 170.519 267.751 170.462 268.115 170.424C268.483 170.383 268.751 170.314 268.918 170.217C269.09 170.121 269.175 169.954 269.175 169.715V169.665C269.175 169.046 269.006 168.564 268.667 168.221C268.332 167.878 267.824 167.706 267.142 167.706C266.435 167.706 265.88 167.861 265.478 168.171C265.077 168.481 264.794 168.811 264.631 169.163L263.225 168.661C263.476 168.075 263.811 167.619 264.229 167.292C264.652 166.962 265.112 166.731 265.61 166.602C266.112 166.468 266.606 166.401 267.092 166.401C267.401 166.401 267.757 166.439 268.159 166.514C268.565 166.585 268.956 166.734 269.332 166.96C269.713 167.186 270.029 167.527 270.28 167.983C270.531 168.439 270.657 169.05 270.657 169.816V176.168H269.175V174.862H269.1C269 175.072 268.832 175.295 268.598 175.534C268.364 175.773 268.052 175.975 267.663 176.143C267.274 176.31 266.799 176.394 266.238 176.394ZM266.464 175.063C267.05 175.063 267.543 174.948 267.945 174.718C268.351 174.488 268.657 174.191 268.862 173.827C269.071 173.463 269.175 173.08 269.175 172.678V171.322C269.113 171.397 268.975 171.466 268.761 171.529C268.552 171.588 268.309 171.64 268.033 171.686C267.761 171.728 267.495 171.766 267.236 171.799C266.981 171.828 266.773 171.854 266.614 171.874C266.229 171.925 265.87 172.006 265.535 172.119C265.204 172.228 264.936 172.393 264.731 172.615C264.53 172.833 264.43 173.13 264.43 173.506C264.43 174.021 264.62 174.41 265.001 174.674C265.386 174.933 265.874 175.063 266.464 175.063ZM277.554 166.526V167.782H272.557V166.526H277.554ZM274.014 164.216H275.495V173.406C275.495 173.825 275.556 174.138 275.677 174.348C275.802 174.553 275.962 174.691 276.154 174.762C276.351 174.829 276.558 174.862 276.775 174.862C276.939 174.862 277.073 174.854 277.177 174.837C277.282 174.816 277.365 174.8 277.428 174.787L277.73 176.118C277.629 176.155 277.489 176.193 277.309 176.231C277.129 176.273 276.901 176.294 276.625 176.294C276.206 176.294 275.796 176.204 275.394 176.024C274.997 175.844 274.666 175.57 274.403 175.201C274.143 174.833 274.014 174.369 274.014 173.808V164.216ZM282.619 176.394C282.008 176.394 281.454 176.279 280.956 176.049C280.458 175.814 280.063 175.477 279.77 175.038C279.477 174.595 279.33 174.059 279.33 173.431C279.33 172.879 279.439 172.431 279.657 172.088C279.874 171.741 280.165 171.469 280.529 171.272C280.893 171.075 281.295 170.929 281.734 170.832C282.178 170.732 282.624 170.653 283.071 170.594C283.657 170.519 284.132 170.462 284.496 170.424C284.864 170.383 285.132 170.314 285.3 170.217C285.471 170.121 285.557 169.954 285.557 169.715V169.665C285.557 169.046 285.388 168.564 285.049 168.221C284.714 167.878 284.205 167.706 283.523 167.706C282.816 167.706 282.262 167.861 281.86 168.171C281.458 168.481 281.176 168.811 281.012 169.163L279.606 168.661C279.857 168.075 280.192 167.619 280.611 167.292C281.033 166.962 281.494 166.731 281.992 166.602C282.494 166.468 282.988 166.401 283.473 166.401C283.783 166.401 284.138 166.439 284.54 166.514C284.946 166.585 285.337 166.734 285.714 166.96C286.095 167.186 286.411 167.527 286.662 167.983C286.913 168.439 287.038 169.05 287.038 169.816V176.168H285.557V174.862H285.482C285.381 175.072 285.214 175.295 284.98 175.534C284.745 175.773 284.433 175.975 284.044 176.143C283.655 176.31 283.18 176.394 282.619 176.394ZM282.845 175.063C283.431 175.063 283.925 174.948 284.327 174.718C284.733 174.488 285.038 174.191 285.243 173.827C285.452 173.463 285.557 173.08 285.557 172.678V171.322C285.494 171.397 285.356 171.466 285.143 171.529C284.934 171.588 284.691 171.64 284.415 171.686C284.143 171.728 283.877 171.766 283.617 171.799C283.362 171.828 283.155 171.854 282.996 171.874C282.611 171.925 282.251 172.006 281.916 172.119C281.586 172.228 281.318 172.393 281.113 172.615C280.912 172.833 280.812 173.13 280.812 173.506C280.812 174.021 281.002 174.41 281.383 174.674C281.768 174.933 282.255 175.063 282.845 175.063Z" fill="#232323"/>
</g>
<path d="M61.4287 93.0703C26.0824 93.0703 -2.57129 64.4165 -2.57129 29.0703L-2.57129 -6.54826L452.72 -6.54826L452.72 29.0703C452.72 64.4166 424.066 93.0703 388.72 93.0703L61.4287 93.0703Z" fill="url(#paint0_linear_129_1112)"/>
<path d="M61.4287 93.0703C26.0824 93.0703 -2.57129 64.4165 -2.57129 29.0703L-2.57129 -6.54826L452.72 -6.54826L452.72 29.0703C452.72 64.4166 424.066 93.0703 388.72 93.0703L61.4287 93.0703Z" fill="url(#paint1_linear_129_1112)"/>
<path d="M61 70.457C25.6538 70.457 -3 41.8033 -3 6.45703L-3 -6.54298L453 -6.54297L453 6.45704C453 41.8033 424.346 70.457 389 70.457L61 70.457Z" fill="url(#paint2_linear_129_1112)"/>
<g filter="url(#filter3_d_129_1112)">
<rect x="109" y="214.113" width="232" height="55.8857" rx="13.2571" fill="white"/>
<path fill-rule="evenodd" clip-rule="evenodd" d="M158.726 232.055C158.726 231.64 158.39 231.305 157.976 231.305C157.562 231.305 157.226 231.64 157.226 232.055V234.055C157.226 234.055 157.226 234.056 157.226 234.056V250.053C157.226 250.053 157.226 250.054 157.226 250.055V252.055C157.226 252.469 157.562 252.805 157.976 252.805C158.39 252.805 158.726 252.469 158.726 252.055V250.799C159.935 250.787 160.946 250.745 161.785 250.603C162.813 250.429 163.657 250.092 164.335 249.413C165.083 248.665 165.415 247.716 165.573 246.544C165.726 245.405 165.726 243.949 165.726 242.111V241.998C165.726 240.161 165.726 238.705 165.573 237.566C165.415 236.393 165.083 235.444 164.335 234.696C163.657 234.018 162.813 233.681 161.785 233.506C160.946 233.364 159.935 233.323 158.726 233.31V232.055ZM158.726 234.81V249.299C159.912 249.286 160.815 249.246 161.534 249.124C162.376 248.981 162.889 248.738 163.274 248.353C163.697 247.93 163.951 247.35 164.086 246.344C164.224 245.316 164.226 243.962 164.226 242.055C164.226 240.148 164.224 238.793 164.086 237.766C163.951 236.759 163.697 236.18 163.274 235.757C162.889 235.372 162.376 235.128 161.534 234.985C160.815 234.863 159.912 234.823 158.726 234.81Z" fill="#6C6C6C"/>
<path d="M152.92 233.305C151.082 233.305 149.626 233.305 148.487 233.458C147.315 233.615 146.366 233.948 145.617 234.696C144.869 235.444 144.537 236.393 144.379 237.566C144.226 238.705 144.226 240.161 144.226 241.998V242.111C144.226 243.949 144.226 245.404 144.379 246.544C144.537 247.716 144.869 248.665 145.617 249.413C146.366 250.162 147.315 250.494 148.487 250.652C149.626 250.805 151.082 250.805 152.92 250.805H154.976C155.39 250.805 155.726 250.469 155.726 250.055C155.726 249.64 155.39 249.305 154.976 249.305H152.976C151.069 249.305 149.715 249.303 148.687 249.165C147.681 249.03 147.101 248.776 146.678 248.353C146.255 247.93 146.001 247.35 145.866 246.344C145.728 245.316 145.726 243.962 145.726 242.055C145.726 240.148 145.728 238.793 145.866 237.766C146.001 236.759 146.255 236.18 146.678 235.757C147.101 235.333 147.681 235.08 148.687 234.944C149.715 234.806 151.069 234.805 152.976 234.805H154.976C155.39 234.805 155.726 234.469 155.726 234.055C155.726 233.64 155.39 233.305 154.976 233.305L152.92 233.305Z" fill="#6C6C6C"/>
<path d="M150.976 243.055C151.528 243.055 151.976 242.607 151.976 242.055C151.976 241.502 151.528 241.055 150.976 241.055C150.424 241.055 149.976 241.502 149.976 242.055C149.976 242.607 150.424 243.055 150.976 243.055Z" fill="#6C6C6C"/>
<path d="M155.976 242.055C155.976 242.607 155.528 243.055 154.976 243.055C154.424 243.055 153.976 242.607 153.976 242.055C153.976 241.502 154.424 241.055 154.976 241.055C155.528 241.055 155.976 241.502 155.976 242.055Z" fill="#6C6C6C"/>
<path d="M180.013 248.055V235.199H187.772V236.58H181.57V240.924H187.37V242.305H181.57V246.674H187.872V248.055H180.013ZM191.858 242.255V248.055H190.376V238.413H191.808V239.92H191.933C192.159 239.43 192.502 239.037 192.963 238.74C193.423 238.438 194.017 238.288 194.745 238.288C195.398 238.288 195.969 238.421 196.459 238.689C196.949 238.953 197.329 239.355 197.601 239.895C197.873 240.43 198.009 241.108 198.009 241.928V248.055H196.528V242.029C196.528 241.271 196.331 240.681 195.938 240.259C195.545 239.832 195.005 239.618 194.318 239.618C193.846 239.618 193.423 239.721 193.051 239.926C192.682 240.131 192.391 240.43 192.178 240.824C191.965 241.217 191.858 241.694 191.858 242.255ZM204.633 248.256C203.729 248.256 202.951 248.042 202.298 247.615C201.645 247.188 201.143 246.601 200.792 245.851C200.44 245.102 200.264 244.247 200.264 243.284C200.264 242.305 200.444 241.441 200.804 240.692C201.168 239.938 201.675 239.351 202.323 238.928C202.976 238.501 203.738 238.288 204.608 238.288C205.286 238.288 205.897 238.413 206.441 238.664C206.985 238.915 207.431 239.267 207.778 239.719C208.125 240.171 208.341 240.698 208.425 241.301H206.943C206.83 240.861 206.579 240.472 206.19 240.133C205.805 239.79 205.286 239.618 204.633 239.618C204.056 239.618 203.549 239.769 203.114 240.07C202.683 240.367 202.346 240.788 202.104 241.332C201.865 241.872 201.746 242.506 201.746 243.234C201.746 243.979 201.863 244.627 202.097 245.18C202.336 245.732 202.671 246.161 203.102 246.467C203.537 246.772 204.047 246.925 204.633 246.925C205.018 246.925 205.368 246.858 205.682 246.724C205.995 246.59 206.261 246.398 206.479 246.146C206.696 245.895 206.851 245.594 206.943 245.243H208.425C208.341 245.812 208.134 246.324 207.803 246.78C207.477 247.232 207.044 247.592 206.504 247.86C205.968 248.124 205.345 248.256 204.633 248.256ZM210.59 248.055V238.413H212.021V239.869H212.122C212.298 239.392 212.616 239.005 213.076 238.708C213.536 238.411 214.055 238.262 214.633 238.262C214.741 238.262 214.877 238.265 215.041 238.269C215.204 238.273 215.327 238.279 215.411 238.288V239.794C215.361 239.782 215.246 239.763 215.066 239.738C214.89 239.708 214.704 239.694 214.507 239.694C214.038 239.694 213.62 239.792 213.252 239.989C212.888 240.181 212.599 240.449 212.385 240.792C212.176 241.131 212.072 241.518 212.072 241.953V248.055H210.59ZM218.415 251.67C218.163 251.67 217.94 251.649 217.743 251.608C217.546 251.57 217.41 251.532 217.335 251.495L217.712 250.189C218.071 250.281 218.389 250.314 218.666 250.289C218.942 250.264 219.187 250.141 219.4 249.919C219.618 249.701 219.816 249.348 219.996 248.858L220.273 248.105L216.707 238.413H218.314L220.976 246.096H221.076L223.737 238.413H225.344L221.252 249.461C221.068 249.959 220.84 250.371 220.568 250.697C220.296 251.028 219.98 251.273 219.62 251.432C219.264 251.591 218.862 251.67 218.415 251.67ZM227.3 251.67V238.413H228.731V239.945H228.907C229.015 239.777 229.166 239.564 229.359 239.304C229.555 239.041 229.836 238.806 230.2 238.601C230.568 238.392 231.066 238.288 231.694 238.288C232.505 238.288 233.221 238.491 233.84 238.896C234.46 239.302 234.943 239.878 235.29 240.623C235.638 241.368 235.811 242.246 235.811 243.259C235.811 244.28 235.638 245.165 235.29 245.914C234.943 246.659 234.462 247.237 233.847 247.647C233.232 248.053 232.522 248.256 231.719 248.256C231.099 248.256 230.604 248.153 230.231 247.948C229.859 247.739 229.572 247.502 229.371 247.239C229.17 246.971 229.015 246.749 228.907 246.573H228.781V251.67H227.3ZM228.756 243.234C228.756 243.962 228.863 244.604 229.076 245.161C229.29 245.713 229.601 246.146 230.011 246.46C230.422 246.77 230.924 246.925 231.518 246.925C232.137 246.925 232.654 246.762 233.068 246.435C233.487 246.105 233.801 245.661 234.01 245.104C234.223 244.544 234.33 243.92 234.33 243.234C234.33 242.556 234.225 241.945 234.016 241.401C233.811 240.853 233.499 240.42 233.081 240.102C232.667 239.779 232.146 239.618 231.518 239.618C230.915 239.618 230.409 239.771 229.999 240.077C229.589 240.378 229.279 240.801 229.07 241.345C228.861 241.884 228.756 242.514 228.756 243.234ZM242.264 238.413V239.669H237.268V238.413H242.264ZM238.724 236.103H240.205V245.293C240.205 245.711 240.266 246.025 240.387 246.234C240.513 246.439 240.672 246.577 240.864 246.649C241.061 246.716 241.268 246.749 241.486 246.749C241.649 246.749 241.783 246.741 241.888 246.724C241.992 246.703 242.076 246.686 242.139 246.674L242.44 248.004C242.34 248.042 242.199 248.08 242.019 248.117C241.839 248.159 241.611 248.18 241.335 248.18C240.917 248.18 240.507 248.09 240.105 247.91C239.707 247.73 239.377 247.456 239.113 247.088C238.854 246.72 238.724 246.255 238.724 245.695V236.103ZM248.431 248.256C247.502 248.256 246.701 248.051 246.027 247.64C245.358 247.226 244.841 246.649 244.477 245.908C244.117 245.163 243.937 244.297 243.937 243.309C243.937 242.322 244.117 241.451 244.477 240.698C244.841 239.941 245.347 239.351 245.996 238.928C246.649 238.501 247.41 238.288 248.281 238.288C248.783 238.288 249.279 238.371 249.768 238.539C250.258 238.706 250.704 238.978 251.105 239.355C251.507 239.727 251.827 240.221 252.066 240.836C252.304 241.451 252.424 242.209 252.424 243.108V243.736H244.992V242.456H250.917C250.917 241.912 250.808 241.426 250.591 240.999C250.377 240.572 250.072 240.236 249.674 239.989C249.281 239.742 248.816 239.618 248.281 239.618C247.691 239.618 247.18 239.765 246.749 240.058C246.322 240.346 245.994 240.723 245.764 241.188C245.534 241.652 245.418 242.15 245.418 242.682V243.535C245.418 244.263 245.544 244.881 245.795 245.387C246.05 245.889 246.404 246.272 246.856 246.536C247.308 246.795 247.833 246.925 248.431 246.925C248.821 246.925 249.172 246.87 249.486 246.762C249.804 246.649 250.078 246.481 250.308 246.259C250.538 246.033 250.716 245.753 250.842 245.418L252.273 245.82C252.122 246.305 251.869 246.732 251.513 247.101C251.158 247.465 250.718 247.749 250.195 247.954C249.672 248.155 249.084 248.256 248.431 248.256ZM258.318 248.256C257.514 248.256 256.805 248.053 256.19 247.647C255.575 247.237 255.093 246.659 254.746 245.914C254.399 245.165 254.225 244.28 254.225 243.259C254.225 242.246 254.399 241.368 254.746 240.623C255.093 239.878 255.577 239.302 256.196 238.896C256.815 238.491 257.531 238.288 258.343 238.288C258.971 238.288 259.466 238.392 259.831 238.601C260.199 238.806 260.479 239.041 260.672 239.304C260.868 239.564 261.021 239.777 261.13 239.945H261.255V235.199H262.737V248.055H261.306V246.573H261.13C261.021 246.749 260.866 246.971 260.665 247.239C260.465 247.502 260.178 247.739 259.805 247.948C259.433 248.153 258.937 248.256 258.318 248.256ZM258.519 246.925C259.113 246.925 259.615 246.77 260.025 246.46C260.435 246.146 260.747 245.713 260.96 245.161C261.174 244.604 261.281 243.962 261.281 243.234C261.281 242.514 261.176 241.884 260.967 241.345C260.757 240.801 260.448 240.378 260.038 240.077C259.628 239.771 259.121 239.618 258.519 239.618C257.891 239.618 257.368 239.779 256.949 240.102C256.535 240.42 256.223 240.853 256.014 241.401C255.809 241.945 255.707 242.556 255.707 243.234C255.707 243.92 255.811 244.544 256.02 245.104C256.234 245.661 256.548 246.105 256.962 246.435C257.38 246.762 257.899 246.925 258.519 246.925ZM274.268 248.256C273.464 248.256 272.755 248.053 272.14 247.647C271.525 247.237 271.043 246.659 270.696 245.914C270.349 245.165 270.175 244.28 270.175 243.259C270.175 242.246 270.349 241.368 270.696 240.623C271.043 239.878 271.527 239.302 272.146 238.896C272.765 238.491 273.481 238.288 274.293 238.288C274.921 238.288 275.416 238.392 275.781 238.601C276.149 238.806 276.429 239.041 276.622 239.304C276.818 239.564 276.971 239.777 277.08 239.945H277.205V235.199H278.687V248.055H277.256V246.573H277.08C276.971 246.749 276.816 246.971 276.615 247.239C276.415 247.502 276.128 247.739 275.755 247.948C275.383 248.153 274.887 248.256 274.268 248.256ZM274.469 246.925C275.063 246.925 275.565 246.77 275.975 246.46C276.385 246.146 276.697 245.713 276.91 245.161C277.124 244.604 277.231 243.962 277.231 243.234C277.231 242.514 277.126 241.884 276.917 241.345C276.707 240.801 276.398 240.378 275.988 240.077C275.578 239.771 275.071 239.618 274.469 239.618C273.841 239.618 273.318 239.779 272.899 240.102C272.485 240.42 272.173 240.853 271.964 241.401C271.759 241.945 271.657 242.556 271.657 243.234C271.657 243.92 271.761 244.544 271.97 245.104C272.184 245.661 272.498 246.105 272.912 246.435C273.33 246.762 273.849 246.925 274.469 246.925ZM284.443 248.281C283.832 248.281 283.277 248.166 282.779 247.935C282.281 247.701 281.886 247.364 281.593 246.925C281.3 246.481 281.154 245.946 281.154 245.318C281.154 244.766 281.263 244.318 281.48 243.975C281.698 243.627 281.989 243.355 282.353 243.159C282.717 242.962 283.118 242.815 283.558 242.719C284.001 242.619 284.447 242.539 284.895 242.481C285.481 242.405 285.956 242.349 286.32 242.311C286.688 242.269 286.956 242.2 287.123 242.104C287.295 242.008 287.381 241.84 287.381 241.602V241.552C287.381 240.932 287.211 240.451 286.872 240.108C286.537 239.765 286.029 239.593 285.347 239.593C284.64 239.593 284.085 239.748 283.683 240.058C283.282 240.367 282.999 240.698 282.836 241.049L281.43 240.547C281.681 239.961 282.016 239.505 282.434 239.179C282.857 238.848 283.317 238.618 283.815 238.488C284.317 238.355 284.811 238.288 285.297 238.288C285.606 238.288 285.962 238.325 286.364 238.401C286.77 238.472 287.161 238.62 287.537 238.846C287.918 239.072 288.234 239.413 288.485 239.869C288.736 240.326 288.862 240.937 288.862 241.702V248.055H287.381V246.749H287.305C287.205 246.958 287.037 247.182 286.803 247.421C286.569 247.659 286.257 247.862 285.868 248.03C285.479 248.197 285.004 248.281 284.443 248.281ZM284.669 246.95C285.255 246.95 285.749 246.835 286.15 246.605C286.556 246.375 286.862 246.077 287.067 245.713C287.276 245.349 287.381 244.966 287.381 244.565V243.209C287.318 243.284 287.18 243.353 286.966 243.416C286.757 243.475 286.514 243.527 286.238 243.573C285.966 243.615 285.7 243.652 285.441 243.686C285.186 243.715 284.979 243.74 284.82 243.761C284.435 243.811 284.075 243.893 283.74 244.006C283.409 244.115 283.141 244.28 282.936 244.502C282.736 244.719 282.635 245.017 282.635 245.393C282.635 245.908 282.826 246.297 283.206 246.561C283.591 246.82 284.079 246.95 284.669 246.95ZM295.759 238.413V239.669H290.762V238.413H295.759ZM292.219 236.103H293.7V245.293C293.7 245.711 293.761 246.025 293.882 246.234C294.008 246.439 294.167 246.577 294.359 246.649C294.556 246.716 294.763 246.749 294.981 246.749C295.144 246.749 295.278 246.741 295.382 246.724C295.487 246.703 295.571 246.686 295.633 246.674L295.935 248.004C295.834 248.042 295.694 248.08 295.514 248.117C295.334 248.159 295.106 248.18 294.83 248.18C294.411 248.18 294.001 248.09 293.6 247.91C293.202 247.73 292.871 247.456 292.608 247.088C292.348 246.72 292.219 246.255 292.219 245.695V236.103ZM300.824 248.281C300.213 248.281 299.659 248.166 299.161 247.935C298.663 247.701 298.268 247.364 297.975 246.925C297.682 246.481 297.535 245.946 297.535 245.318C297.535 244.766 297.644 244.318 297.862 243.975C298.079 243.627 298.37 243.355 298.734 243.159C299.098 242.962 299.5 242.815 299.939 242.719C300.383 242.619 300.829 242.539 301.276 242.481C301.862 242.405 302.337 242.349 302.701 242.311C303.07 242.269 303.337 242.2 303.505 242.104C303.676 242.008 303.762 241.84 303.762 241.602V241.552C303.762 240.932 303.593 240.451 303.254 240.108C302.919 239.765 302.41 239.593 301.728 239.593C301.021 239.593 300.467 239.748 300.065 240.058C299.663 240.367 299.381 240.698 299.218 241.049L297.811 240.547C298.063 239.961 298.397 239.505 298.816 239.179C299.238 238.848 299.699 238.618 300.197 238.488C300.699 238.355 301.193 238.288 301.678 238.288C301.988 238.288 302.343 238.325 302.745 238.401C303.151 238.472 303.542 238.62 303.919 238.846C304.3 239.072 304.616 239.413 304.867 239.869C305.118 240.326 305.243 240.937 305.243 241.702V248.055H303.762V246.749H303.687C303.586 246.958 303.419 247.182 303.185 247.421C302.95 247.659 302.639 247.862 302.249 248.03C301.86 248.197 301.385 248.281 300.824 248.281ZM301.05 246.95C301.636 246.95 302.13 246.835 302.532 246.605C302.938 246.375 303.243 246.077 303.448 245.713C303.657 245.349 303.762 244.966 303.762 244.565V243.209C303.699 243.284 303.561 243.353 303.348 243.416C303.139 243.475 302.896 243.527 302.62 243.573C302.348 243.615 302.082 243.652 301.822 243.686C301.567 243.715 301.36 243.74 301.201 243.761C300.816 243.811 300.456 243.893 300.121 244.006C299.791 244.115 299.523 244.28 299.318 244.502C299.117 244.719 299.017 245.017 299.017 245.393C299.017 245.908 299.207 246.297 299.588 246.561C299.973 246.82 300.46 246.95 301.05 246.95Z" fill="#6C6C6C"/>
</g>
<g filter="url(#filter4_d_129_1112)">
<path d="M44.019 191.457C21.635 192.36 7.84288 214.289 1.06636 229.774C-1.76571 236.246 -7.91992 240.911 -14.9841 240.911C-23.8294 240.911 -31 233.74 -31 224.895V21.4034C-31 14.8056 -25.6514 9.45703 -19.0536 9.45703C-12.1431 9.45703 -6.51636 15.3064 -6.53784 22.2169C-6.5567 28.2818 -6.49877 36.5336 -6.2843 47.2572C-5.21172 100.886 71.2671 106.299 124.902 105.615C220.465 104.396 340.398 102.328 391.987 101.414C408.433 101.123 424.197 94.7597 435.562 82.8698C443.735 74.3199 452.812 64.2447 458.48 56.179C461.832 51.4081 467.146 47.8388 472.977 47.8388C480.806 47.8388 487.154 54.186 487.154 62.0157V253.995C487.154 261.382 481.165 267.371 473.778 267.371C466.391 267.371 460.403 261.385 460.403 253.997V241.526C460.403 239.188 460.145 236.842 459.258 234.679C456.566 228.107 451.492 221.851 445.566 216.243C424.377 196.188 393.958 191.404 364.783 191.319C272.555 191.05 66.3335 190.557 44.019 191.457Z" fill="url(#paint3_linear_129_1112)"/>
</g>
<g filter="url(#filter5_d_129_1112)">
<path d="M115.046 159.457V142.002H125.989V144.27H117.679V149.588H125.418V151.846H117.679V157.19H126.091V159.457H115.046ZM130.914 151.684V159.457H128.366V146.366H130.812V148.497H130.974C131.275 147.804 131.747 147.247 132.389 146.826C133.036 146.406 133.852 146.196 134.835 146.196C135.727 146.196 136.508 146.383 137.178 146.758C137.849 147.127 138.369 147.679 138.738 148.412C139.107 149.145 139.292 150.051 139.292 151.13V159.457H136.744V151.437C136.744 150.488 136.497 149.747 136.002 149.213C135.508 148.673 134.829 148.403 133.965 148.403C133.374 148.403 132.849 148.531 132.389 148.787C131.934 149.042 131.573 149.417 131.306 149.912C131.045 150.4 130.914 150.991 130.914 151.684ZM147.288 159.721C146.021 159.721 144.93 159.434 144.015 158.86C143.106 158.281 142.407 157.483 141.919 156.466C141.43 155.449 141.186 154.284 141.186 152.971C141.186 151.642 141.436 150.468 141.936 149.451C142.436 148.429 143.14 147.63 144.049 147.056C144.958 146.483 146.029 146.196 147.262 146.196C148.257 146.196 149.143 146.38 149.921 146.75C150.7 147.113 151.328 147.625 151.805 148.284C152.288 148.943 152.575 149.713 152.666 150.593H150.186C150.049 149.98 149.737 149.451 149.248 149.008C148.765 148.565 148.117 148.343 147.305 148.343C146.595 148.343 145.973 148.531 145.438 148.906C144.91 149.275 144.498 149.804 144.203 150.491C143.907 151.173 143.759 151.98 143.759 152.912C143.759 153.866 143.904 154.69 144.194 155.383C144.484 156.076 144.893 156.613 145.421 156.994C145.956 157.375 146.583 157.565 147.305 157.565C147.788 157.565 148.225 157.477 148.617 157.301C149.015 157.119 149.348 156.86 149.615 156.525C149.887 156.19 150.078 155.787 150.186 155.315H152.666C152.575 156.162 152.299 156.917 151.839 157.582C151.379 158.247 150.762 158.77 149.99 159.15C149.223 159.531 148.322 159.721 147.288 159.721ZM154.455 159.457V146.366H156.918V148.446H157.054C157.293 147.741 157.713 147.187 158.316 146.784C158.924 146.375 159.611 146.17 160.378 146.17C160.537 146.17 160.725 146.176 160.941 146.187C161.162 146.199 161.336 146.213 161.461 146.23V148.667C161.358 148.639 161.176 148.608 160.915 148.574C160.654 148.534 160.392 148.514 160.131 148.514C159.529 148.514 158.992 148.642 158.52 148.897C158.054 149.147 157.685 149.497 157.412 149.946C157.14 150.389 157.003 150.895 157.003 151.463V159.457H154.455ZM164.739 164.366C164.358 164.366 164.012 164.335 163.699 164.272C163.387 164.216 163.154 164.153 163 164.085L163.614 161.997C164.08 162.122 164.495 162.176 164.858 162.159C165.222 162.142 165.543 162.005 165.821 161.75C166.106 161.494 166.356 161.076 166.571 160.497L166.887 159.627L162.097 146.366H164.824L168.14 156.525H168.276L171.591 146.366H174.327L168.932 161.204C168.682 161.886 168.364 162.463 167.978 162.934C167.591 163.412 167.131 163.77 166.597 164.008C166.063 164.247 165.444 164.366 164.739 164.366ZM175.786 164.366V146.366H178.275V148.488H178.488C178.635 148.216 178.849 147.9 179.127 147.542C179.405 147.184 179.792 146.872 180.286 146.605C180.78 146.332 181.434 146.196 182.246 146.196C183.303 146.196 184.246 146.463 185.076 146.997C185.905 147.531 186.556 148.301 187.027 149.306C187.505 150.312 187.743 151.522 187.743 152.937C187.743 154.352 187.508 155.565 187.036 156.576C186.564 157.582 185.917 158.358 185.093 158.903C184.269 159.443 183.329 159.713 182.272 159.713C181.476 159.713 180.826 159.579 180.32 159.312C179.82 159.045 179.428 158.733 179.144 158.375C178.86 158.017 178.641 157.699 178.488 157.42H178.334V164.366H175.786ZM178.283 152.912C178.283 153.832 178.417 154.639 178.684 155.332C178.951 156.025 179.337 156.568 179.843 156.96C180.349 157.346 180.968 157.539 181.701 157.539C182.462 157.539 183.099 157.338 183.61 156.934C184.121 156.525 184.508 155.971 184.769 155.272C185.036 154.574 185.17 153.787 185.17 152.912C185.17 152.048 185.039 151.272 184.777 150.585C184.522 149.897 184.135 149.355 183.618 148.957C183.107 148.559 182.468 148.36 181.701 148.36C180.962 148.36 180.337 148.551 179.826 148.931C179.32 149.312 178.937 149.843 178.675 150.525C178.414 151.207 178.283 152.002 178.283 152.912ZM195.773 146.366V148.412H188.623V146.366H195.773ZM190.54 143.23H193.089V155.613C193.089 156.108 193.163 156.48 193.31 156.73C193.458 156.974 193.648 157.142 193.881 157.233C194.12 157.318 194.378 157.36 194.657 157.36C194.861 157.36 195.04 157.346 195.194 157.318C195.347 157.289 195.466 157.267 195.552 157.25L196.012 159.355C195.864 159.412 195.654 159.468 195.381 159.525C195.109 159.588 194.768 159.622 194.359 159.627C193.688 159.639 193.063 159.52 192.484 159.27C191.904 159.02 191.435 158.633 191.077 158.11C190.719 157.588 190.54 156.931 190.54 156.142V143.23ZM197.656 159.457V146.366H200.204V159.457H197.656ZM198.943 144.346C198.5 144.346 198.119 144.199 197.801 143.903C197.489 143.602 197.332 143.244 197.332 142.829C197.332 142.409 197.489 142.051 197.801 141.755C198.119 141.454 198.5 141.304 198.943 141.304C199.386 141.304 199.764 141.454 200.077 141.755C200.395 142.051 200.554 142.409 200.554 142.829C200.554 143.244 200.395 143.602 200.077 143.903C199.764 144.199 199.386 144.346 198.943 144.346ZM205.245 151.684V159.457H202.697V146.366H205.143V148.497H205.305C205.606 147.804 206.077 147.247 206.719 146.826C207.367 146.406 208.183 146.196 209.165 146.196C210.058 146.196 210.839 146.383 211.509 146.758C212.18 147.127 212.7 147.679 213.069 148.412C213.438 149.145 213.623 150.051 213.623 151.13V159.457H211.075V151.437C211.075 150.488 210.827 149.747 210.333 149.213C209.839 148.673 209.16 148.403 208.296 148.403C207.705 148.403 207.18 148.531 206.719 148.787C206.265 149.042 205.904 149.417 205.637 149.912C205.376 150.4 205.245 150.991 205.245 151.684ZM221.593 164.639C220.553 164.639 219.658 164.502 218.908 164.23C218.164 163.957 217.556 163.596 217.085 163.147C216.613 162.699 216.261 162.207 216.028 161.673L218.218 160.77C218.372 161.02 218.576 161.284 218.832 161.562C219.093 161.846 219.445 162.088 219.889 162.287C220.337 162.485 220.914 162.585 221.619 162.585C222.585 162.585 223.383 162.349 224.014 161.877C224.644 161.412 224.96 160.667 224.96 159.645V157.071H224.798C224.644 157.349 224.423 157.659 224.133 158C223.849 158.341 223.457 158.636 222.957 158.886C222.457 159.136 221.806 159.261 221.005 159.261C219.971 159.261 219.039 159.02 218.21 158.537C217.386 158.048 216.732 157.329 216.249 156.38C215.772 155.426 215.533 154.252 215.533 152.86C215.533 151.468 215.769 150.275 216.241 149.281C216.718 148.287 217.372 147.525 218.201 146.997C219.031 146.463 219.971 146.196 221.022 146.196C221.835 146.196 222.491 146.332 222.991 146.605C223.491 146.872 223.88 147.184 224.158 147.542C224.443 147.9 224.661 148.216 224.815 148.488H225.002V146.366H227.499V159.747C227.499 160.872 227.238 161.795 226.715 162.517C226.193 163.238 225.485 163.772 224.593 164.119C223.707 164.466 222.707 164.639 221.593 164.639ZM221.568 157.147C222.301 157.147 222.92 156.977 223.426 156.636C223.937 156.289 224.323 155.795 224.585 155.153C224.852 154.505 224.985 153.73 224.985 152.826C224.985 151.946 224.854 151.17 224.593 150.5C224.332 149.829 223.948 149.306 223.443 148.931C222.937 148.551 222.312 148.36 221.568 148.36C220.801 148.36 220.161 148.559 219.65 148.957C219.139 149.349 218.752 149.883 218.491 150.559C218.235 151.235 218.107 151.991 218.107 152.826C218.107 153.684 218.238 154.437 218.499 155.085C218.761 155.733 219.147 156.238 219.658 156.602C220.176 156.966 220.812 157.147 221.568 157.147ZM237.007 164.366C236.627 164.366 236.28 164.335 235.968 164.272C235.655 164.216 235.422 164.153 235.269 164.085L235.882 161.997C236.348 162.122 236.763 162.176 237.127 162.159C237.49 162.142 237.811 162.005 238.09 161.75C238.374 161.494 238.624 161.076 238.84 160.497L239.155 159.627L234.365 146.366H237.093L240.408 156.525H240.544L243.86 146.366H246.595L241.201 161.204C240.951 161.886 240.632 162.463 240.246 162.934C239.86 163.412 239.399 163.77 238.865 164.008C238.331 164.247 237.712 164.366 237.007 164.366ZM253.123 159.721C251.896 159.721 250.825 159.44 249.91 158.877C248.995 158.315 248.285 157.528 247.779 156.517C247.274 155.505 247.021 154.324 247.021 152.971C247.021 151.613 247.274 150.426 247.779 149.409C248.285 148.392 248.995 147.602 249.91 147.039C250.825 146.477 251.896 146.196 253.123 146.196C254.35 146.196 255.422 146.477 256.336 147.039C257.251 147.602 257.961 148.392 258.467 149.409C258.973 150.426 259.225 151.613 259.225 152.971C259.225 154.324 258.973 155.505 258.467 156.517C257.961 157.528 257.251 158.315 256.336 158.877C255.422 159.44 254.35 159.721 253.123 159.721ZM253.132 157.582C253.927 157.582 254.586 157.372 255.109 156.951C255.632 156.531 256.018 155.971 256.268 155.272C256.524 154.574 256.652 153.804 256.652 152.963C256.652 152.127 256.524 151.36 256.268 150.662C256.018 149.957 255.632 149.392 255.109 148.966C254.586 148.539 253.927 148.326 253.132 148.326C252.331 148.326 251.666 148.539 251.137 148.966C250.615 149.392 250.225 149.957 249.97 150.662C249.72 151.36 249.595 152.127 249.595 152.963C249.595 153.804 249.72 154.574 249.97 155.272C250.225 155.971 250.615 156.531 251.137 156.951C251.666 157.372 252.331 157.582 253.132 157.582ZM269.427 154.028V146.366H271.983V159.457H269.478V157.19H269.341C269.04 157.889 268.557 158.471 267.892 158.937C267.233 159.397 266.412 159.627 265.429 159.627C264.588 159.627 263.844 159.443 263.196 159.074C262.554 158.699 262.049 158.145 261.679 157.412C261.316 156.679 261.134 155.772 261.134 154.693V146.366H263.682V154.386C263.682 155.278 263.929 155.988 264.424 156.517C264.918 157.045 265.56 157.309 266.35 157.309C266.827 157.309 267.302 157.19 267.773 156.951C268.25 156.713 268.645 156.352 268.958 155.869C269.276 155.386 269.432 154.772 269.427 154.028ZM274.471 159.457V146.366H276.934V148.446H277.071C277.309 147.741 277.73 147.187 278.332 146.784C278.94 146.375 279.628 146.17 280.395 146.17C280.554 146.17 280.741 146.176 280.957 146.187C281.179 146.199 281.352 146.213 281.477 146.23V148.667C281.375 148.639 281.193 148.608 280.932 148.574C280.67 148.534 280.409 148.514 280.148 148.514C279.545 148.514 279.008 148.642 278.537 148.897C278.071 149.147 277.701 149.497 277.429 149.946C277.156 150.389 277.02 150.895 277.02 151.463V159.457H274.471ZM293.062 159.713C292.006 159.713 291.062 159.443 290.233 158.903C289.409 158.358 288.761 157.582 288.29 156.576C287.824 155.565 287.591 154.352 287.591 152.937C287.591 151.522 287.827 150.312 288.298 149.306C288.775 148.301 289.429 147.531 290.258 146.997C291.088 146.463 292.028 146.196 293.079 146.196C293.892 146.196 294.545 146.332 295.04 146.605C295.54 146.872 295.926 147.184 296.199 147.542C296.477 147.9 296.693 148.216 296.847 148.488H297V142.002H299.548V159.457H297.06V157.42H296.847C296.693 157.699 296.472 158.017 296.182 158.375C295.898 158.733 295.506 159.045 295.006 159.312C294.506 159.579 293.858 159.713 293.062 159.713ZM293.625 157.539C294.358 157.539 294.977 157.346 295.483 156.96C295.994 156.568 296.381 156.025 296.642 155.332C296.909 154.639 297.043 153.832 297.043 152.912C297.043 152.002 296.912 151.207 296.65 150.525C296.389 149.843 296.006 149.312 295.5 148.931C294.994 148.551 294.369 148.36 293.625 148.36C292.858 148.36 292.219 148.559 291.707 148.957C291.196 149.355 290.81 149.897 290.548 150.585C290.293 151.272 290.165 152.048 290.165 152.912C290.165 153.787 290.295 154.574 290.557 155.272C290.818 155.971 291.204 156.525 291.716 156.934C292.233 157.338 292.869 157.539 293.625 157.539ZM306.059 159.747C305.229 159.747 304.479 159.593 303.809 159.287C303.139 158.974 302.607 158.522 302.215 157.931C301.829 157.341 301.636 156.616 301.636 155.758C301.636 155.02 301.778 154.412 302.062 153.934C302.346 153.457 302.729 153.079 303.212 152.801C303.695 152.522 304.235 152.312 304.832 152.17C305.428 152.028 306.036 151.92 306.656 151.846C307.44 151.755 308.076 151.681 308.565 151.625C309.053 151.562 309.408 151.463 309.63 151.326C309.852 151.19 309.962 150.968 309.962 150.662V150.602C309.962 149.858 309.752 149.281 309.332 148.872C308.917 148.463 308.298 148.258 307.474 148.258C306.616 148.258 305.94 148.449 305.445 148.829C304.957 149.204 304.619 149.622 304.431 150.082L302.036 149.537C302.32 148.741 302.735 148.099 303.281 147.61C303.832 147.116 304.465 146.758 305.181 146.537C305.897 146.309 306.65 146.196 307.44 146.196C307.962 146.196 308.516 146.258 309.102 146.383C309.693 146.502 310.244 146.724 310.755 147.048C311.272 147.372 311.695 147.835 312.025 148.437C312.354 149.034 312.519 149.809 312.519 150.764V159.457H310.031V157.667H309.928C309.764 157.997 309.516 158.321 309.187 158.639C308.857 158.957 308.434 159.221 307.917 159.431C307.4 159.642 306.781 159.747 306.059 159.747ZM306.613 157.701C307.318 157.701 307.92 157.562 308.42 157.284C308.925 157.005 309.309 156.642 309.57 156.193C309.837 155.738 309.971 155.252 309.971 154.735V153.048C309.88 153.139 309.704 153.224 309.443 153.304C309.187 153.377 308.894 153.443 308.565 153.5C308.235 153.551 307.914 153.599 307.602 153.645C307.289 153.684 307.028 153.718 306.818 153.747C306.323 153.809 305.871 153.914 305.462 154.062C305.059 154.21 304.735 154.423 304.491 154.701C304.252 154.974 304.133 155.338 304.133 155.792C304.133 156.423 304.366 156.9 304.832 157.224C305.298 157.542 305.891 157.701 306.613 157.701ZM321.088 146.366V148.412H313.938V146.366H321.088ZM315.855 143.23H318.403V155.613C318.403 156.108 318.477 156.48 318.625 156.73C318.773 156.974 318.963 157.142 319.196 157.233C319.435 157.318 319.693 157.36 319.972 157.36C320.176 157.36 320.355 157.346 320.509 157.318C320.662 157.289 320.781 157.267 320.867 157.25L321.327 159.355C321.179 159.412 320.969 159.468 320.696 159.525C320.423 159.588 320.082 159.622 319.673 159.627C319.003 159.639 318.378 159.52 317.798 159.27C317.219 159.02 316.75 158.633 316.392 158.11C316.034 157.588 315.855 156.931 315.855 156.142V143.23ZM326.781 159.747C325.951 159.747 325.201 159.593 324.531 159.287C323.86 158.974 323.329 158.522 322.937 157.931C322.551 157.341 322.357 156.616 322.357 155.758C322.357 155.02 322.499 154.412 322.784 153.934C323.068 153.457 323.451 153.079 323.934 152.801C324.417 152.522 324.957 152.312 325.553 152.17C326.15 152.028 326.758 151.92 327.377 151.846C328.161 151.755 328.798 151.681 329.286 151.625C329.775 151.562 330.13 151.463 330.352 151.326C330.573 151.19 330.684 150.968 330.684 150.662V150.602C330.684 149.858 330.474 149.281 330.053 148.872C329.639 148.463 329.019 148.258 328.195 148.258C327.338 148.258 326.661 148.449 326.167 148.829C325.678 149.204 325.34 149.622 325.153 150.082L322.758 149.537C323.042 148.741 323.457 148.099 324.002 147.61C324.553 147.116 325.187 146.758 325.903 146.537C326.619 146.309 327.372 146.196 328.161 146.196C328.684 146.196 329.238 146.258 329.823 146.383C330.414 146.502 330.965 146.724 331.477 147.048C331.994 147.372 332.417 147.835 332.747 148.437C333.076 149.034 333.241 149.809 333.241 150.764V159.457H330.752V157.667H330.65C330.485 157.997 330.238 158.321 329.909 158.639C329.579 158.957 329.156 159.221 328.639 159.431C328.122 159.642 327.502 159.747 326.781 159.747ZM327.335 157.701C328.039 157.701 328.642 157.562 329.142 157.284C329.647 157.005 330.031 156.642 330.292 156.193C330.559 155.738 330.693 155.252 330.693 154.735V153.048C330.602 153.139 330.426 153.224 330.164 153.304C329.909 153.377 329.616 153.443 329.286 153.5C328.957 153.551 328.636 153.599 328.323 153.645C328.011 153.684 327.749 153.718 327.539 153.747C327.045 153.809 326.593 153.914 326.184 154.062C325.781 154.21 325.457 154.423 325.213 154.701C324.974 154.974 324.855 155.338 324.855 155.792C324.855 156.423 325.088 156.9 325.553 157.224C326.019 157.542 326.613 157.701 327.335 157.701Z" fill="white"/>
</g>
<path d="M359.585 137.936C356.372 137.626 353.831 135.086 353.522 131.876L353 126.457L352.478 131.876C352.169 135.086 349.628 137.627 346.415 137.936L341 138.457L346.415 138.978C349.628 139.288 352.169 141.828 352.478 145.038L353 150.457L353.522 145.038C353.831 141.828 356.372 139.287 359.585 138.978L365 138.457L359.585 137.936Z" fill="white"/>
</g>
<defs>
<filter id="filter0_d_129_1112" x="101" y="-9.54297" width="256" height="79.8867" filterUnits="userSpaceOnUse" color-interpolation-filters="sRGB">
<feFlood flood-opacity="0" result="BackgroundImageFix"/>
<feColorMatrix in="SourceAlpha" type="matrix" values="0 0 0 0 0 0 0 0 0 0 0 0 0 0 0 0 0 0 127 0" result="hardAlpha"/>
<feOffset dx="4" dy="4"/>
<feGaussianBlur stdDeviation="6"/>
<feComposite in2="hardAlpha" operator="out"/>
<feColorMatrix type="matrix" values="0 0 0 0 0 0 0 0 0 0 0 0 0 0 0 0 0 0 0.12 0"/>
<feBlend mode="normal" in2="BackgroundImageFix" result="effect1_dropShadow_129_1112"/>
<feBlend mode="normal" in="SourceGraphic" in2="effect1_dropShadow_129_1112" result="shape"/>
</filter>
<filter id="filter1_d_129_1112" x="101" y="62.3438" width="256" height="79.8867" filterUnits="userSpaceOnUse" color-interpolation-filters="sRGB">
<feFlood flood-opacity="0" result="BackgroundImageFix"/>
<feColorMatrix in="SourceAlpha" type="matrix" values="0 0 0 0 0 0 0 0 0 0 0 0 0 0 0 0 0 0 127 0" result="hardAlpha"/>
<feOffset dx="4" dy="4"/>
<feGaussianBlur stdDeviation="6"/>
<feComposite in2="hardAlpha" operator="out"/>
<feColorMatrix type="matrix" values="0 0 0 0 0 0 0 0 0 0 0 0 0 0 0 0 0 0 0.12 0"/>
<feBlend mode="normal" in2="BackgroundImageFix" result="effect1_dropShadow_129_1112"/>
<feBlend mode="normal" in="SourceGraphic" in2="effect1_dropShadow_129_1112" result="shape"/>
</filter>
<filter id="filter2_d_129_1112" x="99" y="132.227" width="256" height="79.8867" filterUnits="userSpaceOnUse" color-interpolation-filters="sRGB">
<feFlood flood-opacity="0" result="BackgroundImageFix"/>
<feColorMatrix in="SourceAlpha" type="matrix" values="0 0 0 0 0 0 0 0 0 0 0 0 0 0 0 0 0 0 127 0" result="hardAlpha"/>
<feOffset dx="2" dy="2"/>
<feGaussianBlur stdDeviation="6"/>
<feComposite in2="hardAlpha" operator="out"/>
<feColorMatrix type="matrix" values="0 0 0 0 0 0 0 0 0 0 0 0 0 0 0 0 0 0 0.12 0"/>
<feBlend mode="normal" in2="BackgroundImageFix" result="effect1_dropShadow_129_1112"/>
<feBlend mode="normal" in="SourceGraphic" in2="effect1_dropShadow_129_1112" result="shape"/>
</filter>
<filter id="filter3_d_129_1112" x="99" y="204.113" width="256" height="79.8867" filterUnits="userSpaceOnUse" color-interpolation-filters="sRGB">
<feFlood flood-opacity="0" result="BackgroundImageFix"/>
<feColorMatrix in="SourceAlpha" type="matrix" values="0 0 0 0 0 0 0 0 0 0 0 0 0 0 0 0 0 0 127 0" result="hardAlpha"/>
<feOffset dx="2" dy="2"/>
<feGaussianBlur stdDeviation="6"/>
<feComposite in2="hardAlpha" operator="out"/>
<feColorMatrix type="matrix" values="0 0 0 0 0 0 0 0 0 0 0 0 0 0 0 0 0 0 0.12 0"/>
<feBlend mode="normal" in2="BackgroundImageFix" result="effect1_dropShadow_129_1112"/>
<feBlend mode="normal" in="SourceGraphic" in2="effect1_dropShadow_129_1112" result="shape"/>
</filter>
<filter id="filter4_d_129_1112" x="-39" y="1.45703" width="542.154" height="281.914" filterUnits="userSpaceOnUse" color-interpolation-filters="sRGB">
<feFlood flood-opacity="0" result="BackgroundImageFix"/>
<feColorMatrix in="SourceAlpha" type="matrix" values="0 0 0 0 0 0 0 0 0 0 0 0 0 0 0 0 0 0 127 0" result="hardAlpha"/>
<feOffset dx="4" dy="4"/>
<feGaussianBlur stdDeviation="6"/>
<feComposite in2="hardAlpha" operator="out"/>
<feColorMatrix type="matrix" values="0 0 0 0 0 0 0 0 0 0 0 0 0 0 0 0 0 0 0.25 0"/>
<feBlend mode="normal" in2="BackgroundImageFix" result="effect1_dropShadow_129_1112"/>
<feBlend mode="normal" in="SourceGraphic" in2="effect1_dropShadow_129_1112" result="shape"/>
</filter>
<filter id="filter5_d_129_1112" x="111.045" y="141.305" width="226.195" height="31.3359" filterUnits="userSpaceOnUse" color-interpolation-filters="sRGB">
<feFlood flood-opacity="0" result="BackgroundImageFix"/>
<feColorMatrix in="SourceAlpha" type="matrix" values="0 0 0 0 0 0 0 0 0 0 0 0 0 0 0 0 0 0 127 0" result="hardAlpha"/>
<feOffset dy="4"/>
<feGaussianBlur stdDeviation="2"/>
<feComposite in2="hardAlpha" operator="out"/>
<feColorMatrix type="matrix" values="0 0 0 0 0 0 0 0 0 0 0 0 0 0 0 0 0 0 0.25 0"/>
<feBlend mode="normal" in2="BackgroundImageFix" result="effect1_dropShadow_129_1112"/>
<feBlend mode="normal" in="SourceGraphic" in2="effect1_dropShadow_129_1112" result="shape"/>
</filter>
<linearGradient id="paint0_linear_129_1112" x1="225.074" y1="93.0703" x2="225.074" y2="-6.54826" gradientUnits="userSpaceOnUse">
<stop stop-color="white" stop-opacity="0"/>
<stop offset="1" stop-color="#FAFAFA"/>
</linearGradient>
<linearGradient id="paint1_linear_129_1112" x1="225.074" y1="93.0703" x2="225.074" y2="-6.54826" gradientUnits="userSpaceOnUse">
<stop stop-color="white" stop-opacity="0"/>
<stop offset="1" stop-color="#FAFAFA"/>
</linearGradient>
<linearGradient id="paint2_linear_129_1112" x1="225" y1="70.457" x2="225" y2="-6.54297" gradientUnits="userSpaceOnUse">
<stop stop-color="white" stop-opacity="0"/>
<stop offset="1" stop-color="#FAFAFA"/>
</linearGradient>
<linearGradient id="paint3_linear_129_1112" x1="228.077" y1="9.45703" x2="228.077" y2="267.371" gradientUnits="userSpaceOnUse">
<stop stop-color="#005049"/>
<stop offset="0.558613" stop-color="#F1C361"/>
<stop offset="1" stop-color="#038479"/>
</linearGradient>
<clipPath id="clip0_129_1112">
<rect width="456" height="283" fill="white"/>
</clipPath>
</defs>
</svg>
