<svg width="488" height="367" viewBox="0 0 488 367" fill="none" xmlns="http://www.w3.org/2000/svg">
<g clip-path="url(#clip0_127_871)" filter="url(#filter0_d_127_871)">
<rect width="456" height="335" transform="translate(11 11)" fill="white"/>
<g filter="url(#filter1_d_127_871)">
<g clip-path="url(#clip1_127_871)">
<rect x="443" y="25" width="311.305" height="408" rx="22.0227" transform="rotate(90 443 25)" fill="url(#paint0_linear_127_871)"/>
<g clip-path="url(#clip2_127_871)">
<rect x="435" y="33" width="295.305" height="392" rx="20" transform="rotate(90 435 33)" fill="white"/>
<g filter="url(#filter2_d_127_871)">
<path d="M238.5 65C298.423 65 347 113.577 347 173.5C347 233.423 298.423 282 238.5 282C178.577 282 130 233.423 130 173.5C130 113.577 178.577 65 238.5 65Z" fill="white"/>
</g>
<path d="M297 183.103H369.069L402.448 152H438.862M345.552 196H369.069L391.828 174.759" stroke="url(#paint1_linear_127_871)" stroke-width="3.03448"/>
<path d="M175.862 193.897L103.793 193.897L70.414 225L34.0002 225M127.311 181L103.793 181L81.0347 202.241" stroke="url(#paint2_linear_127_871)" stroke-width="3.03448"/>
<g filter="url(#filter3_d_127_871)">
<path d="M240.5 92C289.377 92 329 131.623 329 180.5C329 229.377 289.377 269 240.5 269C191.623 269 152 229.377 152 180.5C152 131.623 191.623 92 240.5 92Z" fill="#EFEFEF"/>
</g>
<g filter="url(#filter4_d_127_871)">
<path d="M220.236 304.915C220.236 301.616 222.911 298.941 226.21 298.941C229.509 298.941 232.184 301.616 232.184 304.915C232.184 308.214 229.509 310.889 226.21 310.889C222.911 310.889 220.236 308.214 220.236 304.915Z" fill="white" shape-rendering="crispEdges"/>
<g filter="url(#filter5_d_127_871)">
<g clip-path="url(#clip3_127_871)">
<path fill-rule="evenodd" clip-rule="evenodd" d="M225.647 301.973L225.662 301.973C225.776 301.973 225.868 302.065 225.868 302.178C225.868 302.291 225.776 302.383 225.662 302.383C225.14 302.383 224.769 302.384 224.488 302.422C224.212 302.459 224.054 302.528 223.938 302.644C223.822 302.76 223.753 302.919 223.716 303.194C223.678 303.475 223.677 303.846 223.677 304.368C223.677 304.482 223.585 304.574 223.472 304.574C223.359 304.574 223.267 304.482 223.267 304.368L223.267 304.353C223.267 303.85 223.267 303.451 223.309 303.139C223.352 302.818 223.443 302.558 223.648 302.354C223.852 302.149 224.112 302.058 224.433 302.015C224.745 301.973 225.144 301.973 225.647 301.973ZM227.932 302.422C227.65 302.384 227.28 302.383 226.757 302.383C226.644 302.383 226.552 302.291 226.552 302.178C226.552 302.065 226.644 301.973 226.757 301.973L226.773 301.973C227.276 301.973 227.675 301.973 227.987 302.015C228.308 302.058 228.567 302.149 228.772 302.354C228.977 302.558 229.068 302.818 229.111 303.139C229.153 303.451 229.153 303.85 229.153 304.353V304.368C229.153 304.482 229.061 304.574 228.948 304.574C228.834 304.574 228.742 304.482 228.742 304.368C228.742 303.846 228.742 303.475 228.704 303.194C228.667 302.919 228.598 302.76 228.482 302.644C228.366 302.528 228.207 302.459 227.932 302.422ZM223.472 305.258C223.585 305.258 223.677 305.35 223.677 305.464C223.677 305.986 223.678 306.356 223.716 306.638C223.753 306.913 223.822 307.072 223.938 307.188C224.054 307.304 224.212 307.373 224.488 307.41C224.769 307.448 225.14 307.449 225.662 307.449C225.776 307.449 225.868 307.54 225.868 307.654C225.868 307.767 225.776 307.859 225.662 307.859H225.647C225.144 307.859 224.745 307.859 224.433 307.817C224.112 307.774 223.852 307.683 223.648 307.478C223.443 307.273 223.352 307.014 223.309 306.693C223.267 306.381 223.267 305.982 223.267 305.479L223.267 305.464C223.267 305.35 223.359 305.258 223.472 305.258ZM228.948 305.258C229.061 305.258 229.153 305.35 229.153 305.464V305.479C229.153 305.982 229.153 306.381 229.111 306.693C229.068 307.014 228.977 307.273 228.772 307.478C228.567 307.683 228.308 307.774 227.987 307.817C227.675 307.859 227.276 307.859 226.773 307.859H226.757C226.644 307.859 226.552 307.767 226.552 307.654C226.552 307.54 226.644 307.449 226.757 307.449C227.28 307.449 227.65 307.448 227.932 307.41C228.207 307.373 228.366 307.304 228.482 307.188C228.598 307.072 228.667 306.913 228.704 306.638C228.742 306.356 228.742 305.986 228.742 305.464C228.742 305.35 228.834 305.258 228.948 305.258Z" fill="#232323"/>
</g>
</g>
</g>
<g filter="url(#filter6_d_127_871)">
<rect x="176" y="109" width="126.91" height="129.271" rx="63.455" fill="url(#paint3_linear_127_871)" shape-rendering="crispEdges"/>
<rect x="177.5" y="110.5" width="123.91" height="126.271" rx="61.955" stroke="url(#paint4_linear_127_871)" stroke-width="3" shape-rendering="crispEdges"/>
<g clip-path="url(#clip4_127_871)">
<g filter="url(#filter7_d_127_871)">
<path fill-rule="evenodd" clip-rule="evenodd" d="M216.709 155.754C215.733 157.144 215.733 161.278 215.733 169.544V173.615C215.733 188.19 226.692 195.264 233.568 198.267C235.433 199.082 236.365 199.489 239 199.489C241.635 199.489 242.568 199.082 244.433 198.267C251.309 195.264 262.267 188.19 262.267 173.615V169.544C262.267 161.278 262.267 157.144 261.291 155.754C260.315 154.363 256.429 153.033 248.656 150.372L247.175 149.866C243.124 148.479 241.098 147.785 239 147.785C236.903 147.785 234.877 148.479 230.825 149.866L229.344 150.372C221.572 153.033 217.685 154.363 216.709 155.754ZM236.056 164.236L235.718 164.844C235.345 165.511 235.159 165.845 234.869 166.065C234.579 166.286 234.217 166.368 233.495 166.531L232.837 166.68C230.293 167.255 229.021 167.543 228.719 168.516C228.416 169.489 229.283 170.503 231.017 172.531L231.466 173.055C231.959 173.631 232.205 173.92 232.316 174.276C232.427 174.632 232.389 175.017 232.315 175.786L232.247 176.485C231.985 179.191 231.854 180.544 232.646 181.145C233.438 181.746 234.629 181.198 237.01 180.101L237.626 179.818C238.303 179.506 238.642 179.35 239 179.35C239.359 179.35 239.697 179.506 240.374 179.818L240.99 180.101C243.372 181.198 244.562 181.746 245.355 181.145C246.147 180.544 246.016 179.191 245.753 176.486L245.686 175.786C245.611 175.017 245.574 174.632 245.685 174.276C245.796 173.92 246.042 173.631 246.535 173.055L246.983 172.531C248.717 170.503 249.584 169.489 249.282 168.516C248.979 167.543 247.707 167.255 245.164 166.68L244.506 166.531C243.783 166.368 243.422 166.286 243.131 166.065C242.841 165.845 242.655 165.511 242.283 164.844L241.944 164.236C240.634 161.886 239.979 160.711 239 160.711C238.021 160.711 237.366 161.886 236.056 164.236Z" fill="url(#paint5_linear_127_871)"/>
</g>
</g>
</g>
</g>
</g>
</g>
<rect width="129.426" height="455.292" transform="translate(465.274 217) rotate(89.4971)" fill="url(#paint6_linear_127_871)"/>
<rect width="129.426" height="455.292" transform="translate(465.274 217) rotate(89.4971)" fill="url(#paint7_linear_127_871)"/>
</g>
<defs>
<filter id="filter0_d_127_871" x="0" y="0" width="488" height="367" filterUnits="userSpaceOnUse" color-interpolation-filters="sRGB">
<feFlood flood-opacity="0" result="BackgroundImageFix"/>
<feColorMatrix in="SourceAlpha" type="matrix" values="0 0 0 0 0 0 0 0 0 0 0 0 0 0 0 0 0 0 127 0" result="hardAlpha"/>
<feOffset dx="5" dy="5"/>
<feGaussianBlur stdDeviation="8"/>
<feComposite in2="hardAlpha" operator="out"/>
<feColorMatrix type="matrix" values="0 0 0 0 0 0 0 0 0 0 0 0 0 0 0 0 0 0 0.12 0"/>
<feBlend mode="normal" in2="BackgroundImageFix" result="effect1_dropShadow_127_871"/>
<feBlend mode="normal" in="SourceGraphic" in2="effect1_dropShadow_127_871" result="shape"/>
</filter>
<filter id="filter1_d_127_871" x="10.7832" y="0.783222" width="462.751" height="366.056" filterUnits="userSpaceOnUse" color-interpolation-filters="sRGB">
<feFlood flood-opacity="0" result="BackgroundImageFix"/>
<feColorMatrix in="SourceAlpha" type="matrix" values="0 0 0 0 0 0 0 0 0 0 0 0 0 0 0 0 0 0 127 0" result="hardAlpha"/>
<feOffset dx="3.15871" dy="3.15871"/>
<feGaussianBlur stdDeviation="13.6877"/>
<feComposite in2="hardAlpha" operator="out"/>
<feColorMatrix type="matrix" values="0 0 0 0 0 0 0 0 0 0 0 0 0 0 0 0 0 0 0.12 0"/>
<feBlend mode="normal" in2="BackgroundImageFix" result="effect1_dropShadow_127_871"/>
<feBlend mode="normal" in="SourceGraphic" in2="effect1_dropShadow_127_871" result="shape"/>
</filter>
<filter id="filter2_d_127_871" x="67.1032" y="2.10322" width="359.201" height="359.201" filterUnits="userSpaceOnUse" color-interpolation-filters="sRGB">
<feFlood flood-opacity="0" result="BackgroundImageFix"/>
<feColorMatrix in="SourceAlpha" type="matrix" values="0 0 0 0 0 0 0 0 0 0 0 0 0 0 0 0 0 0 127 0" result="hardAlpha"/>
<feOffset dx="8.20393" dy="8.20393"/>
<feGaussianBlur stdDeviation="35.5504"/>
<feComposite in2="hardAlpha" operator="out"/>
<feColorMatrix type="matrix" values="0 0 0 0 0 0 0 0 0 0 0 0 0 0 0 0 0 0 0.12 0"/>
<feBlend mode="normal" in2="BackgroundImageFix" result="effect1_dropShadow_127_871"/>
<feBlend mode="normal" in="SourceGraphic" in2="effect1_dropShadow_127_871" result="shape"/>
</filter>
<filter id="filter3_d_127_871" x="100.697" y="40.6971" width="292.989" height="292.989" filterUnits="userSpaceOnUse" color-interpolation-filters="sRGB">
<feFlood flood-opacity="0" result="BackgroundImageFix"/>
<feColorMatrix in="SourceAlpha" type="matrix" values="0 0 0 0 0 0 0 0 0 0 0 0 0 0 0 0 0 0 127 0" result="hardAlpha"/>
<feOffset dx="6.69168" dy="6.69168"/>
<feGaussianBlur stdDeviation="28.9973"/>
<feComposite in2="hardAlpha" operator="out"/>
<feColorMatrix type="matrix" values="0 0 0 0 0 0 0 0 0 0 0 0 0 0 0 0 0 0 0.12 0"/>
<feBlend mode="normal" in2="BackgroundImageFix" result="effect1_dropShadow_127_871"/>
<feBlend mode="normal" in="SourceGraphic" in2="effect1_dropShadow_127_871" result="shape"/>
</filter>
<filter id="filter4_d_127_871" x="217.548" y="296.253" width="19.713" height="19.715" filterUnits="userSpaceOnUse" color-interpolation-filters="sRGB">
<feFlood flood-opacity="0" result="BackgroundImageFix"/>
<feColorMatrix in="SourceAlpha" type="matrix" values="0 0 0 0 0 0 0 0 0 0 0 0 0 0 0 0 0 0 127 0" result="hardAlpha"/>
<feOffset dx="1.19473" dy="1.19473"/>
<feGaussianBlur stdDeviation="1.94144"/>
<feComposite in2="hardAlpha" operator="out"/>
<feColorMatrix type="matrix" values="0 0 0 0 0 0 0 0 0 0 0 0 0 0 0 0 0 0 0.25 0"/>
<feBlend mode="normal" in2="BackgroundImageFix" result="effect1_dropShadow_127_871"/>
<feBlend mode="normal" in="SourceGraphic" in2="effect1_dropShadow_127_871" result="shape"/>
</filter>
<filter id="filter5_d_127_871" x="218.146" y="296.851" width="18.5187" height="18.5196" filterUnits="userSpaceOnUse" color-interpolation-filters="sRGB">
<feFlood flood-opacity="0" result="BackgroundImageFix"/>
<feColorMatrix in="SourceAlpha" type="matrix" values="0 0 0 0 0 0 0 0 0 0 0 0 0 0 0 0 0 0 127 0" result="hardAlpha"/>
<feOffset dx="1.19473" dy="1.19473"/>
<feGaussianBlur stdDeviation="1.94144"/>
<feComposite in2="hardAlpha" operator="out"/>
<feColorMatrix type="matrix" values="0 0 0 0 0 0 0 0 0 0 0 0 0 0 0 0 0 0 0.25 0"/>
<feBlend mode="normal" in2="BackgroundImageFix" result="effect1_dropShadow_127_871"/>
<feBlend mode="normal" in="SourceGraphic" in2="effect1_dropShadow_127_871" result="shape"/>
</filter>
<filter id="filter6_d_127_871" x="171.165" y="109" width="136.579" height="138.939" filterUnits="userSpaceOnUse" color-interpolation-filters="sRGB">
<feFlood flood-opacity="0" result="BackgroundImageFix"/>
<feColorMatrix in="SourceAlpha" type="matrix" values="0 0 0 0 0 0 0 0 0 0 0 0 0 0 0 0 0 0 127 0" result="hardAlpha"/>
<feOffset dy="4.83466"/>
<feGaussianBlur stdDeviation="2.41733"/>
<feComposite in2="hardAlpha" operator="out"/>
<feColorMatrix type="matrix" values="0 0 0 0 0 0 0 0 0 0 0 0 0 0 0 0 0 0 0.25 0"/>
<feBlend mode="normal" in2="BackgroundImageFix" result="effect1_dropShadow_127_871"/>
<feBlend mode="normal" in="SourceGraphic" in2="effect1_dropShadow_127_871" result="shape"/>
</filter>
<filter id="filter7_d_127_871" x="211.733" y="147.785" width="54.5342" height="59.7031" filterUnits="userSpaceOnUse" color-interpolation-filters="sRGB">
<feFlood flood-opacity="0" result="BackgroundImageFix"/>
<feColorMatrix in="SourceAlpha" type="matrix" values="0 0 0 0 0 0 0 0 0 0 0 0 0 0 0 0 0 0 127 0" result="hardAlpha"/>
<feOffset dy="4"/>
<feGaussianBlur stdDeviation="2"/>
<feComposite in2="hardAlpha" operator="out"/>
<feColorMatrix type="matrix" values="0 0 0 0 0 0 0 0 0 0 0 0 0 0 0 0 0 0 0.25 0"/>
<feBlend mode="normal" in2="BackgroundImageFix" result="effect1_dropShadow_127_871"/>
<feBlend mode="normal" in="SourceGraphic" in2="effect1_dropShadow_127_871" result="shape"/>
</filter>
<linearGradient id="paint0_linear_127_871" x1="443" y1="229" x2="570" y2="229" gradientUnits="userSpaceOnUse">
<stop stop-color="#015850"/>
<stop offset="0.313957" stop-color="#4E8A84"/>
<stop offset="0.545161" stop-color="#F1BF54"/>
<stop offset="0.810331" stop-color="#F2C970"/>
<stop offset="1" stop-color="#F6F6F6"/>
</linearGradient>
<linearGradient id="paint1_linear_127_871" x1="435.005" y1="152" x2="316.898" y2="211.572" gradientUnits="userSpaceOnUse">
<stop stop-color="#EABC54"/>
<stop offset="1" stop-color="#446F4C"/>
</linearGradient>
<linearGradient id="paint2_linear_127_871" x1="37.8571" y1="225" x2="155.964" y2="165.428" gradientUnits="userSpaceOnUse">
<stop stop-color="#EABC54"/>
<stop offset="1" stop-color="#446F4C"/>
</linearGradient>
<linearGradient id="paint3_linear_127_871" x1="239.455" y1="109" x2="239.455" y2="238.271" gradientUnits="userSpaceOnUse">
<stop stop-color="#005049"/>
<stop offset="1" stop-color="#038A7E"/>
</linearGradient>
<linearGradient id="paint4_linear_127_871" x1="239.455" y1="238.271" x2="239.455" y2="109" gradientUnits="userSpaceOnUse">
<stop stop-color="#015B53"/>
<stop offset="1" stop-color="#F1BF54"/>
</linearGradient>
<linearGradient id="paint5_linear_127_871" x1="239" y1="147.785" x2="239" y2="199.489" gradientUnits="userSpaceOnUse">
<stop stop-color="#037E74"/>
<stop offset="1" stop-color="#F1BF54"/>
</linearGradient>
<linearGradient id="paint6_linear_127_871" x1="0" y1="227.646" x2="129.426" y2="227.646" gradientUnits="userSpaceOnUse">
<stop stop-color="white" stop-opacity="0"/>
<stop offset="1" stop-color="white"/>
</linearGradient>
<linearGradient id="paint7_linear_127_871" x1="0" y1="227.646" x2="129.426" y2="227.646" gradientUnits="userSpaceOnUse">
<stop stop-color="white" stop-opacity="0"/>
<stop offset="1" stop-color="white"/>
</linearGradient>
<clipPath id="clip0_127_871">
<rect width="456" height="335" fill="white" transform="translate(11 11)"/>
</clipPath>
<clipPath id="clip1_127_871">
<rect x="443" y="25" width="311.305" height="408" rx="22.0227" transform="rotate(90 443 25)" fill="white"/>
</clipPath>
<clipPath id="clip2_127_871">
<rect x="435" y="33" width="295.305" height="392" rx="20" transform="rotate(90 435 33)" fill="white"/>
</clipPath>
<clipPath id="clip3_127_871">
<rect width="6.57101" height="6.57101" fill="white" transform="translate(222.925 301.629)"/>
</clipPath>
<clipPath id="clip4_127_871">
<rect width="62.0449" height="62.0449" fill="white" transform="translate(207.978 142.613)"/>
</clipPath>
</defs>
</svg>
