<svg width="94" height="94" viewBox="0 0 94 94" fill="none" xmlns="http://www.w3.org/2000/svg">
<path d="M20.2583 10.5191C22.3913 9.09384 24.6311 7.85766 26.9518 6.81837C33.5342 3.87051 36.8255 2.39657 41.204 5.23327C45.5826 8.06997 45.5826 12.7232 45.5826 22.0297V29.227C45.5826 38.2745 45.5826 42.7982 48.3933 45.6089C51.204 48.4196 55.7277 48.4196 64.7752 48.4196H71.9724C81.279 48.4196 85.9322 48.4196 88.7689 52.7982C91.6056 57.1767 90.1317 60.4679 87.1838 67.0504C86.1445 69.3711 84.9083 71.6108 83.483 73.7439C78.4744 81.2399 71.3554 87.0823 63.0262 90.5324C54.6971 93.9824 45.532 94.8851 36.6899 93.1263C27.8477 91.3675 19.7257 87.0262 13.3508 80.6513C6.97601 74.2765 2.63469 66.1545 0.875877 57.3123C-0.882936 48.4702 0.0197495 39.3051 3.46978 30.9759C6.91982 22.6468 12.7622 15.5278 20.2583 10.5191Z" fill="url(#paint0_linear_112_958)"/>
<path d="M93.3054 22.3586C89.4102 12.4711 81.5291 4.58997 71.6416 0.694781C64.245 -2.2191 57.5781 4.4814 57.5781 12.4313V31.6239C57.5781 34.2739 59.7263 36.4221 62.3763 36.4221H81.5689C89.5188 36.4221 96.2193 29.7552 93.3054 22.3586Z" fill="url(#paint1_linear_112_958)"/>
<defs>
<linearGradient id="paint0_linear_112_958" x1="45.1456" y1="3.71094" x2="45.1456" y2="94.0022" gradientUnits="userSpaceOnUse">
<stop stop-color="#F1BF54"/>
<stop offset="1" stop-color="#005049"/>
</linearGradient>
<linearGradient id="paint1_linear_112_958" x1="75.7892" y1="0" x2="75.7892" y2="36.4221" gradientUnits="userSpaceOnUse">
<stop stop-color="#F1BF54"/>
<stop offset="1" stop-color="#005049"/>
</linearGradient>
</defs>
</svg>
